<svg width="164" height="414" viewBox="0 0 164 414" fill="none" xmlns="http://www.w3.org/2000/svg">
<path fill-rule="evenodd" clip-rule="evenodd" d="M156.701 1.32381C160.662 2.96453 163.245 6.8298 163.245 11.1172V145.741V197.683C163.245 200.494 162.128 203.191 160.14 205.179L150.533 214.785L135.542 199.794L142.044 193.292V145.741V36.7087L116.603 62.1495V193.292L128.342 205.031L128.339 205.034L146.359 223.054L146.362 223.051L160.14 236.829C164.279 240.969 164.279 247.68 160.14 251.82L150.534 261.426L135.542 246.435L137.653 244.324L131.373 238.045L131.389 238.029L113.368 220.008L113.353 220.024L98.5074 205.179C96.5195 203.191 95.4026 200.494 95.4026 197.683V57.7587C95.4026 54.9473 96.5195 52.2511 98.5074 50.2631L145.149 3.62168C148.18 0.590008 152.74 -0.316916 156.701 1.32381ZM108.127 227.209L98.5074 236.829C94.3677 240.969 94.3677 247.68 98.5074 251.82L113.355 266.668L113.368 266.654L131.389 284.675L131.375 284.688L142.044 295.357V403.329C142.044 409.184 146.79 413.93 152.644 413.93C158.499 413.93 163.245 409.184 163.245 403.329V290.966C163.245 288.155 162.128 285.458 160.14 283.47L146.362 269.692L146.359 269.695L128.339 251.674L128.341 251.672L120.994 244.324L123.118 242.201L108.127 227.209ZM108.125 273.853L123.116 288.844L116.603 295.357V403.329C116.603 409.184 111.857 413.93 106.003 413.93H80.0322H54.0615C48.2071 413.93 43.4612 409.184 43.4612 403.329V357.748C43.4612 351.894 48.2071 347.148 54.0615 347.148C59.9159 347.148 64.6618 351.894 64.6618 357.748V392.729H80.0322H95.4026V290.966C95.4026 288.155 96.5195 285.458 98.5074 283.47L108.125 273.853ZM87.5278 216.158C91.6675 220.298 91.6675 227.01 87.5278 231.149L64.6618 254.015V296.266C64.6618 299.077 63.545 301.774 61.5571 303.762L21.2006 344.118V403.329C21.2006 409.184 16.4547 413.93 10.6003 413.93C4.74592 413.93 0 409.184 0 403.329V339.727C0 336.916 1.11681 334.22 3.10475 332.232L43.4612 291.875V249.625C43.4612 246.813 44.578 244.117 46.566 242.129L72.5367 216.158C76.6764 212.019 83.3881 212.019 87.5278 216.158Z" fill="#028372"/>
</svg>
