<svg width="339" height="401" viewBox="0 0 339 401" fill="none" xmlns="http://www.w3.org/2000/svg">
<rect y="0.599609" width="338.7" height="400.2" rx="30" fill="white"/>
<circle cx="63.9" cy="106.5" r="27.9" fill="#FFAC52"/>
<path d="M75.8984 105.6V108.6H72.8984L68.3984 93.5996V90.5996H65.3984V93.5996H62.3534V90.5996H59.3534V93.7796L54.8984 108.6H51.8984V105.6H48.8984V122.1H62.3984V114.6H65.3984V122.1H78.8984V105.6H75.8984ZM68.8634 105.6H58.9334L59.8334 102.6H67.9634L68.8634 105.6ZM67.0634 99.5996H60.7334L61.6334 96.5996H66.1634L67.0634 99.5996ZM75.8984 119.1H68.3984V111.6H59.3984V119.1H51.8984V111.6H57.1334L58.0334 108.6H69.7634L70.6634 111.6H75.8984V119.1Z" fill="black"/>
<circle cx="63.9" cy="177.599" r="27.9" fill="#5289FF"/>
<path d="M74.567 169.392H66.503V163.344L63.479 161.328L60.455 163.344V169.392H52.391L50.375 171.408V173.424H76.583V171.408L74.567 169.392ZM63.479 164.352C64.2854 164.352 64.8902 164.957 64.8902 165.965C64.8902 166.973 64.2854 167.376 63.479 167.376C62.6726 167.376 61.8662 166.771 61.8662 165.763C61.8662 164.957 62.6726 164.352 63.479 164.352ZM74.567 175.44H52.391V183.504L50.375 186.528V189.552H76.583V186.528L74.567 183.504V175.44ZM58.439 186.528H56.423V177.456H58.439V186.528ZM64.487 186.528H62.471V177.456H64.487V186.528ZM70.535 186.528H68.519V177.456H70.535V186.528Z" fill="white"/>
<path d="M110.537 184.4V172.304H114.943C115.583 172.304 116.159 172.437 116.671 172.702C117.19 172.961 117.599 173.335 117.898 173.825C118.203 174.309 118.356 174.882 118.356 175.544C118.356 175.838 118.313 176.135 118.226 176.434C118.14 176.734 118.008 177.005 117.829 177.246C117.65 177.483 117.42 177.658 117.138 177.774C117.512 177.866 117.817 178.033 118.054 178.275C118.29 178.517 118.474 178.802 118.607 179.13C118.739 179.453 118.828 179.784 118.874 180.124C118.926 180.458 118.952 180.769 118.952 181.057C118.952 181.696 118.794 182.266 118.477 182.767C118.16 183.269 117.734 183.666 117.198 183.96C116.668 184.254 116.081 184.4 115.436 184.4H110.537ZM112.645 182.595H115.22C115.565 182.595 115.876 182.511 116.153 182.344C116.429 182.177 116.651 181.947 116.818 181.653C116.985 181.359 117.069 181.025 117.069 180.651C117.069 180.328 116.985 180.023 116.818 179.735C116.651 179.447 116.429 179.214 116.153 179.035C115.876 178.856 115.565 178.767 115.22 178.767H112.645V182.595ZM112.645 176.987H114.701C115.128 176.987 115.49 176.855 115.79 176.59C116.095 176.325 116.248 175.974 116.248 175.536C116.248 175.069 116.095 174.718 115.79 174.482C115.49 174.24 115.128 174.119 114.701 174.119H112.645V176.987ZM126.738 175.76H128.846V184.4H126.738L126.643 183.329C126.406 183.715 126.092 184.029 125.701 184.271C125.315 184.507 124.857 184.625 124.327 184.625C123.688 184.625 123.089 184.504 122.53 184.262C121.971 184.02 121.479 183.686 121.052 183.26C120.632 182.834 120.301 182.341 120.059 181.782C119.823 181.224 119.705 180.625 119.705 179.985C119.705 179.369 119.817 178.79 120.042 178.249C120.272 177.707 120.592 177.232 121.001 176.823C121.41 176.414 121.882 176.094 122.418 175.864C122.953 175.634 123.529 175.518 124.146 175.518C124.716 175.518 125.226 175.645 125.675 175.899C126.13 176.152 126.516 176.475 126.833 176.866L126.738 175.76ZM124.275 182.595C124.724 182.595 125.122 182.482 125.468 182.258C125.813 182.033 126.084 181.731 126.28 181.35C126.476 180.965 126.573 180.541 126.573 180.08C126.573 179.614 126.476 179.19 126.28 178.81C126.084 178.424 125.81 178.119 125.459 177.894C125.113 177.67 124.719 177.558 124.275 177.558C123.832 177.558 123.426 177.673 123.057 177.903C122.694 178.128 122.403 178.43 122.184 178.81C121.971 179.19 121.865 179.614 121.865 180.08C121.865 180.547 121.974 180.97 122.193 181.35C122.412 181.731 122.703 182.033 123.066 182.258C123.434 182.482 123.837 182.595 124.275 182.595ZM130.618 184.4V171.44H132.726V184.4H130.618ZM141.183 175.76H143.291V184.4H141.183L141.088 183.329C140.851 183.715 140.537 184.029 140.146 184.271C139.76 184.507 139.302 184.625 138.772 184.625C138.133 184.625 137.534 184.504 136.975 184.262C136.416 184.02 135.924 183.686 135.497 183.26C135.077 182.834 134.746 182.341 134.504 181.782C134.268 181.224 134.15 180.625 134.15 179.985C134.15 179.369 134.262 178.79 134.487 178.249C134.717 177.707 135.037 177.232 135.446 176.823C135.855 176.414 136.327 176.094 136.863 175.864C137.398 175.634 137.974 175.518 138.591 175.518C139.161 175.518 139.671 175.645 140.12 175.899C140.575 176.152 140.961 176.475 141.278 176.866L141.183 175.76ZM138.72 182.595C139.169 182.595 139.567 182.482 139.913 182.258C140.258 182.033 140.529 181.731 140.725 181.35C140.921 180.965 141.018 180.541 141.018 180.08C141.018 179.614 140.921 179.19 140.725 178.81C140.529 178.424 140.255 178.119 139.904 177.894C139.558 177.67 139.164 177.558 138.72 177.558C138.277 177.558 137.871 177.673 137.502 177.903C137.139 178.128 136.848 178.43 136.629 178.81C136.416 179.19 136.31 179.614 136.31 180.08C136.31 180.547 136.419 180.97 136.638 181.35C136.857 181.731 137.148 182.033 137.511 182.258C137.879 182.482 138.282 182.595 138.72 182.595ZM145.012 175.76H147.121V184.4H145.012V175.76ZM146.084 174.646C145.773 174.646 145.511 174.545 145.298 174.343C145.084 174.136 144.978 173.877 144.978 173.566C144.978 173.261 145.084 173.004 145.298 172.797C145.511 172.59 145.77 172.486 146.075 172.486C146.38 172.486 146.637 172.59 146.844 172.797C147.057 173.004 147.164 173.261 147.164 173.566C147.164 173.877 147.06 174.136 146.853 174.343C146.645 174.545 146.389 174.646 146.084 174.646ZM153.349 184.4V172.304H157.755C158.394 172.304 158.97 172.437 159.483 172.702C160.001 172.961 160.41 173.335 160.71 173.825C161.015 174.309 161.168 174.882 161.168 175.544C161.168 175.838 161.125 176.135 161.038 176.434C160.952 176.734 160.819 177.005 160.641 177.246C160.462 177.483 160.232 177.658 159.95 177.774C160.324 177.866 160.629 178.033 160.865 178.275C161.102 178.517 161.286 178.802 161.418 179.13C161.551 179.453 161.64 179.784 161.686 180.124C161.738 180.458 161.764 180.769 161.764 181.057C161.764 181.696 161.606 182.266 161.289 182.767C160.972 183.269 160.546 183.666 160.01 183.96C159.48 184.254 158.893 184.4 158.248 184.4H153.349ZM155.457 182.595H158.032C158.377 182.595 158.688 182.511 158.965 182.344C159.241 182.177 159.463 181.947 159.63 181.653C159.797 181.359 159.881 181.025 159.881 180.651C159.881 180.328 159.797 180.023 159.63 179.735C159.463 179.447 159.241 179.214 158.965 179.035C158.688 178.856 158.377 178.767 158.032 178.767H155.457V182.595ZM155.457 176.987H157.513C157.939 176.987 158.302 176.855 158.602 176.59C158.907 176.325 159.06 175.974 159.06 175.536C159.06 175.069 158.907 174.718 158.602 174.482C158.302 174.24 157.939 174.119 157.513 174.119H155.457V176.987ZM169.549 175.76H171.658V184.4H169.549L169.454 183.329C169.218 183.715 168.904 184.029 168.513 184.271C168.127 184.507 167.669 184.625 167.139 184.625C166.5 184.625 165.901 184.504 165.342 184.262C164.783 184.02 164.291 183.686 163.864 183.26C163.444 182.834 163.113 182.341 162.871 181.782C162.635 181.224 162.517 180.625 162.517 179.985C162.517 179.369 162.629 178.79 162.853 178.249C163.084 177.707 163.404 177.232 163.813 176.823C164.221 176.414 164.694 176.094 165.229 175.864C165.765 175.634 166.341 175.518 166.957 175.518C167.528 175.518 168.037 175.645 168.487 175.899C168.942 176.152 169.328 176.475 169.645 176.866L169.549 175.76ZM167.087 182.595C167.536 182.595 167.934 182.482 168.279 182.258C168.625 182.033 168.896 181.731 169.092 181.35C169.287 180.965 169.385 180.541 169.385 180.08C169.385 179.614 169.287 179.19 169.092 178.81C168.896 178.424 168.622 178.119 168.271 177.894C167.925 177.67 167.531 177.558 167.087 177.558C166.644 177.558 166.237 177.673 165.869 177.903C165.506 178.128 165.215 178.43 164.996 178.81C164.783 179.19 164.677 179.614 164.677 180.08C164.677 180.547 164.786 180.97 165.005 181.35C165.224 181.731 165.515 182.033 165.877 182.258C166.246 182.482 166.649 182.595 167.087 182.595ZM181.294 178.94V184.4H179.185V179.493C179.185 179.153 179.102 178.845 178.935 178.568C178.768 178.286 178.543 178.064 178.261 177.903C177.984 177.736 177.676 177.653 177.336 177.653C176.997 177.653 176.686 177.736 176.403 177.903C176.127 178.064 175.905 178.286 175.738 178.568C175.577 178.845 175.496 179.153 175.496 179.493V184.4H173.388L173.379 175.76H175.487L175.496 176.529C175.79 176.218 176.141 175.974 176.55 175.795C176.959 175.611 177.4 175.518 177.872 175.518C178.5 175.518 179.073 175.674 179.591 175.985C180.11 176.29 180.522 176.702 180.827 177.221C181.138 177.733 181.294 178.306 181.294 178.94ZM181.557 188.72V186.612C181.885 186.612 182.182 186.534 182.447 186.379C182.712 186.229 182.922 186.022 183.078 185.757C183.233 185.498 183.311 185.207 183.311 184.884V175.76H185.419V184.884C185.419 185.587 185.246 186.229 184.901 186.811C184.561 187.393 184.097 187.856 183.51 188.202C182.928 188.548 182.277 188.72 181.557 188.72ZM184.382 174.646C184.071 174.646 183.809 174.545 183.596 174.343C183.383 174.136 183.276 173.877 183.276 173.566C183.276 173.261 183.383 173.004 183.596 172.797C183.809 172.59 184.068 172.486 184.374 172.486C184.679 172.486 184.935 172.59 185.143 172.797C185.356 173.004 185.462 173.261 185.462 173.566C185.462 173.877 185.359 174.136 185.151 174.343C184.944 174.545 184.687 174.646 184.382 174.646ZM193.799 175.76H195.907V184.4H193.799L193.704 183.329C193.468 183.715 193.154 184.029 192.762 184.271C192.376 184.507 191.918 184.625 191.388 184.625C190.749 184.625 190.15 184.504 189.591 184.262C189.032 184.02 188.54 183.686 188.114 183.26C187.693 182.834 187.362 182.341 187.12 181.782C186.884 181.224 186.766 180.625 186.766 179.985C186.766 179.369 186.878 178.79 187.103 178.249C187.333 177.707 187.653 177.232 188.062 176.823C188.471 176.414 188.943 176.094 189.479 175.864C190.015 175.634 190.591 175.518 191.207 175.518C191.777 175.518 192.287 175.645 192.736 175.899C193.191 176.152 193.577 176.475 193.894 176.866L193.799 175.76ZM191.336 182.595C191.786 182.595 192.183 182.482 192.529 182.258C192.874 182.033 193.145 181.731 193.341 181.35C193.537 180.965 193.635 180.541 193.635 180.08C193.635 179.614 193.537 179.19 193.341 178.81C193.145 178.424 192.872 178.119 192.52 177.894C192.175 177.67 191.78 177.558 191.336 177.558C190.893 177.558 190.487 177.673 190.118 177.903C189.755 178.128 189.464 178.43 189.246 178.81C189.032 179.19 188.926 179.614 188.926 180.08C188.926 180.547 189.035 180.97 189.254 181.35C189.473 181.731 189.764 182.033 190.127 182.258C190.496 182.482 190.899 182.595 191.336 182.595ZM197.637 184.4L197.629 175.76H199.737L199.745 176.529C200.039 176.218 200.391 175.974 200.8 175.795C201.209 175.611 201.649 175.518 202.121 175.518C202.438 175.518 202.755 175.565 203.072 175.657L202.242 177.782C202.024 177.696 201.805 177.653 201.586 177.653C201.246 177.653 200.935 177.736 200.653 177.903C200.376 178.064 200.154 178.286 199.987 178.568C199.826 178.845 199.745 179.153 199.745 179.493V184.4H197.637Z" fill="#005248"/>
<g filter="url(#filter0_d_1868_1984)">
<path fill-rule="evenodd" clip-rule="evenodd" d="M61.0371 286.269C61.0371 286.269 37.7095 266.217 37.9063 246.719C37.9757 239.845 40.773 233.28 45.6827 228.469C50.5925 223.657 57.2126 220.993 64.0866 221.062C70.9607 221.132 77.5257 223.929 82.3373 228.839C87.1489 233.749 89.8131 240.369 89.7437 247.243C89.5468 266.74 65.8191 286.317 65.8191 286.317C64.498 287.509 62.3437 287.475 61.0371 286.269ZM63.7105 258.321C65.1996 258.336 66.6771 258.057 68.0586 257.501C69.4401 256.945 70.6986 256.123 71.7622 255.08C72.8258 254.038 73.6737 252.796 74.2574 251.426C74.8412 250.056 75.1494 248.585 75.1644 247.096C75.1794 245.607 74.901 244.129 74.345 242.747C73.7891 241.366 72.9664 240.107 71.9241 239.044C70.8818 237.98 69.6402 237.132 68.2701 236.549C66.9001 235.965 65.4286 235.657 63.9395 235.642C60.9321 235.611 58.0358 236.777 55.8877 238.882C53.7397 240.987 52.5159 243.859 52.4856 246.867C52.4552 249.874 53.6208 252.77 55.7258 254.918C57.8309 257.066 60.7031 258.29 63.7105 258.321Z" fill="#FF6863"/>
</g>
<circle cx="63.9016" cy="247.2" r="16.8" fill="white"/>
<path d="M58.3858 239.598H60.0453V238.208H67.8148V239.628H69.4739V237.185H69.4734C69.4719 237.009 69.4009 236.84 69.2757 236.715C69.1505 236.591 68.9812 236.52 68.8046 236.52H59.0538C58.8757 236.52 58.7049 236.59 58.579 236.716C58.4531 236.842 58.3823 237.013 58.3823 237.191C58.3823 237.203 58.3853 237.215 58.3858 237.227V239.598ZM57.1457 254.899H70.7635V241.076H57.1457V254.899ZM59.8417 247.019C59.8432 246.964 59.8655 246.913 59.9041 246.874C59.9426 246.835 59.9945 246.813 60.049 246.812L62.8125 246.812V244.048C62.8125 243.934 62.9054 243.841 63.0199 243.841H64.9558C65.0702 243.841 65.1631 243.934 65.1631 244.049V246.812H67.9268C68.0413 246.812 68.1342 246.905 68.1342 247.019V248.955C68.1343 248.982 68.1289 249.009 68.1186 249.035C68.1082 249.06 68.0929 249.083 68.0736 249.102C68.0543 249.121 68.0315 249.137 68.0063 249.147C67.9811 249.157 67.9541 249.163 67.9268 249.163H65.1631V251.926C65.1631 251.954 65.1578 251.98 65.1474 252.006C65.137 252.031 65.1217 252.054 65.1025 252.073C65.0832 252.092 65.0603 252.108 65.0351 252.118C65.01 252.128 64.983 252.134 64.9558 252.134H63.0201C62.9929 252.134 62.9659 252.128 62.9407 252.118C62.9156 252.108 62.8927 252.092 62.8734 252.073C62.8542 252.054 62.8389 252.031 62.8285 252.006C62.8181 251.98 62.8127 251.954 62.8128 251.926V249.162H60.049C60.0218 249.162 59.9948 249.157 59.9696 249.147C59.9445 249.136 59.9216 249.121 59.9023 249.102C59.8831 249.082 59.8678 249.059 59.8574 249.034C59.847 249.009 59.8416 248.982 59.8417 248.955V247.019ZM54.1927 241.076C54.051 241.076 53.9107 241.104 53.7797 241.158C53.6487 241.212 53.5297 241.291 53.4295 241.392C53.3292 241.492 53.2497 241.611 53.1955 241.742C53.1412 241.873 53.1133 242.013 53.1133 242.155C53.1133 242.169 53.1168 242.182 53.1176 242.196V253.79C53.1173 253.8 53.1149 253.808 53.1149 253.818C53.1151 254.104 53.2287 254.378 53.4308 254.58C53.6329 254.783 53.907 254.897 54.193 254.897V254.899H55.8019V241.076L54.1927 241.076ZM74.8005 253.811V242.149H74.7954C74.7938 241.864 74.6795 241.591 74.4774 241.39C74.2753 241.189 74.0019 241.076 73.7167 241.075H72.1078V254.899H73.7124V254.898C73.7156 254.898 73.7186 254.899 73.7218 254.899C73.8636 254.899 74.004 254.871 74.135 254.817C74.266 254.763 74.385 254.683 74.4852 254.583C74.5855 254.483 74.665 254.364 74.7192 254.233C74.7734 254.102 74.8013 253.961 74.8013 253.82C74.8013 253.817 74.8005 253.814 74.8005 253.811Z" fill="#FF6863"/>
<g filter="url(#filter1_d_1868_1984)">
<path fill-rule="evenodd" clip-rule="evenodd" d="M61.0371 368.17C61.0371 368.17 37.7095 348.117 37.9063 328.62C37.9757 321.746 40.773 315.181 45.6827 310.369C50.5925 305.558 57.2126 302.893 64.0866 302.963C70.9607 303.032 77.5257 305.83 82.3373 310.739C87.1489 315.649 89.8131 322.269 89.7437 329.143C89.5468 348.641 65.8191 368.218 65.8191 368.218C64.498 369.41 62.3437 369.375 61.0371 368.17ZM63.7105 340.221C65.1996 340.236 66.6771 339.958 68.0586 339.402C69.4401 338.846 70.6986 338.023 71.7622 336.981C72.8258 335.938 73.6737 334.697 74.2574 333.327C74.8412 331.957 75.1494 330.485 75.1644 328.996C75.1794 327.507 74.901 326.029 74.345 324.648C73.7891 323.266 72.9664 322.008 71.9241 320.944C70.8818 319.881 69.6402 319.033 68.2701 318.449C66.9001 317.865 65.4286 317.557 63.9395 317.542C60.9321 317.512 58.0358 318.677 55.8877 320.782C53.7397 322.887 52.5159 325.76 52.4856 328.767C52.4552 331.774 53.6208 334.671 55.7258 336.819C57.8309 338.967 60.7031 340.191 63.7105 340.221Z" fill="#009E8A"/>
</g>
<circle cx="63.9016" cy="329.101" r="16.8" fill="white"/>
<mask id="mask0_1868_1984" style="mask-type:luminance" maskUnits="userSpaceOnUse" x="51" y="317" width="25" height="24">
<path d="M56.4453 329.774V339.278H71.167V329.774L63.8061 322.91L56.4453 329.774Z" fill="white" stroke="white" stroke-width="2.112" stroke-linejoin="round"/>
<path d="M52.2481 327.443C52.1399 327.54 52.0536 327.657 51.9943 327.786C51.9349 327.914 51.9037 328.053 51.9024 328.193C51.9011 328.333 51.9297 328.472 51.9867 328.602C52.0436 328.732 52.1277 328.85 52.234 328.949C52.3404 329.048 52.4668 329.127 52.606 329.18C52.7451 329.233 52.8943 329.259 53.0446 329.258C53.195 329.257 53.3436 329.228 53.4817 329.173C53.6199 329.117 53.7449 329.037 53.8493 328.936L52.2481 327.443ZM63.8068 318.157L64.6075 317.411C64.3951 317.213 64.1071 317.102 63.8068 317.102C63.5066 317.102 63.2186 317.213 63.0062 317.411L63.8068 318.157ZM73.7643 328.936C73.8688 329.037 73.9938 329.117 74.1319 329.173C74.2701 329.228 74.4187 329.257 74.5691 329.258C74.7194 329.259 74.8685 329.233 75.0077 329.18C75.1469 329.127 75.2733 329.048 75.3796 328.949C75.486 328.85 75.5701 328.732 75.627 328.602C75.6839 328.472 75.7126 328.333 75.7113 328.193C75.71 328.053 75.6787 327.914 75.6194 327.786C75.56 327.657 75.4738 327.54 75.3656 327.443L73.7643 328.936ZM53.8493 328.936L64.6075 318.904L63.0062 317.411L52.2481 327.443L53.8493 328.936ZM63.0062 318.904L73.7643 328.936L75.3656 327.443L64.6075 317.411L63.0062 318.904Z" fill="white"/>
<path d="M60.9766 332.413H66.6387M63.8077 329.773V335.053" stroke="black" stroke-width="2.112" stroke-linecap="round" stroke-linejoin="round"/>
</mask>
<g mask="url(#mask0_1868_1984)">
<path d="M50.2148 316.045H77.3933V341.389H50.2148V316.045Z" fill="#009E8A"/>
</g>
<path d="M110.537 329.6V317.504H114.857C115.513 317.504 116.107 317.668 116.637 317.996C117.172 318.324 117.596 318.765 117.907 319.318C118.218 319.871 118.373 320.479 118.373 321.141C118.373 321.821 118.212 322.437 117.889 322.99C117.573 323.537 117.146 323.975 116.611 324.303C116.075 324.626 115.49 324.787 114.857 324.787H112.645V329.6H110.537ZM112.645 322.679H114.632C114.932 322.679 115.205 322.604 115.453 322.454C115.701 322.305 115.896 322.103 116.04 321.85C116.19 321.596 116.265 321.314 116.265 321.003C116.265 320.686 116.19 320.401 116.04 320.147C115.896 319.894 115.701 319.692 115.453 319.543C115.205 319.393 114.932 319.318 114.632 319.318H112.645V322.679ZM119.27 326.403V320.96H121.378V325.85C121.378 326.19 121.462 326.501 121.629 326.783C121.796 327.059 122.017 327.281 122.294 327.448C122.576 327.61 122.884 327.69 123.218 327.69C123.564 327.69 123.875 327.61 124.152 327.448C124.428 327.281 124.65 327.059 124.817 326.783C124.984 326.501 125.067 326.19 125.067 325.85V320.96H127.176L127.184 329.6H125.076L125.067 328.813C124.768 329.124 124.414 329.372 124.005 329.556C123.596 329.735 123.158 329.824 122.691 329.824C122.064 329.824 121.49 329.672 120.972 329.366C120.454 329.055 120.039 328.643 119.728 328.131C119.423 327.612 119.27 327.036 119.27 326.403ZM131.462 329.755C131.013 329.726 130.578 329.637 130.158 329.487C129.743 329.332 129.374 329.122 129.052 328.857C128.729 328.592 128.482 328.275 128.309 327.906L130.089 327.146C130.158 327.261 130.27 327.385 130.426 327.517C130.581 327.644 130.766 327.751 130.979 327.837C131.198 327.923 131.437 327.967 131.696 327.967C131.915 327.967 132.122 327.938 132.318 327.88C132.519 327.817 132.681 327.722 132.802 327.595C132.928 327.468 132.992 327.304 132.992 327.103C132.992 326.89 132.917 326.725 132.767 326.61C132.623 326.489 132.439 326.4 132.214 326.342C131.995 326.279 131.782 326.221 131.575 326.17C131.028 326.06 130.518 325.89 130.046 325.66C129.579 325.429 129.202 325.133 128.914 324.77C128.631 324.401 128.49 323.958 128.49 323.439C128.49 322.869 128.64 322.377 128.94 321.962C129.245 321.547 129.639 321.227 130.123 321.003C130.613 320.778 131.14 320.666 131.704 320.666C132.39 320.666 133.018 320.81 133.588 321.098C134.164 321.38 134.619 321.78 134.953 322.299L133.286 323.284C133.205 323.146 133.093 323.019 132.949 322.904C132.805 322.783 132.64 322.685 132.456 322.61C132.272 322.529 132.079 322.483 131.877 322.472C131.618 322.46 131.382 322.483 131.169 322.541C130.956 322.598 130.783 322.696 130.65 322.834C130.524 322.973 130.46 323.157 130.46 323.387C130.46 323.606 130.547 323.77 130.719 323.88C130.892 323.984 131.1 324.064 131.342 324.122C131.589 324.179 131.825 324.243 132.05 324.312C132.557 324.479 133.032 324.683 133.476 324.925C133.925 325.167 134.285 325.464 134.556 325.815C134.826 326.167 134.956 326.587 134.944 327.077C134.944 327.635 134.777 328.125 134.443 328.546C134.109 328.96 133.677 329.277 133.147 329.496C132.623 329.715 132.062 329.801 131.462 329.755ZM144.139 329.6H141.711L139.741 326.204L138.531 327.647V329.6H136.423V316.64H138.531V324.372L141.391 320.96H144.147L141.184 324.493L144.139 329.6ZM148.747 329.824C147.952 329.824 147.226 329.62 146.569 329.211C145.918 328.802 145.397 328.252 145.005 327.561C144.619 326.869 144.427 326.106 144.427 325.271C144.427 324.643 144.539 324.056 144.763 323.508C144.988 322.955 145.296 322.472 145.688 322.057C146.085 321.636 146.546 321.308 147.07 321.072C147.595 320.836 148.153 320.718 148.747 320.718C149.42 320.718 150.037 320.862 150.595 321.15C151.16 321.432 151.638 321.821 152.03 322.316C152.421 322.811 152.707 323.376 152.885 324.01C153.064 324.643 153.104 325.306 153.006 325.997H146.69C146.771 326.319 146.903 326.61 147.088 326.869C147.272 327.123 147.505 327.327 147.787 327.483C148.07 327.633 148.389 327.71 148.747 327.716C149.115 327.722 149.449 327.635 149.749 327.457C150.054 327.273 150.307 327.025 150.509 326.714L152.66 327.215C152.309 327.981 151.785 328.609 151.088 329.098C150.391 329.582 149.611 329.824 148.747 329.824ZM146.621 324.416H150.872C150.809 324.07 150.673 323.759 150.466 323.482C150.264 323.2 150.014 322.976 149.714 322.809C149.415 322.642 149.092 322.558 148.747 322.558C148.401 322.558 148.081 322.642 147.787 322.809C147.494 322.97 147.243 323.192 147.036 323.474C146.834 323.75 146.696 324.064 146.621 324.416ZM157.028 329.755C156.579 329.726 156.144 329.637 155.723 329.487C155.309 329.332 154.94 329.122 154.618 328.857C154.295 328.592 154.047 328.275 153.875 327.906L155.654 327.146C155.723 327.261 155.836 327.385 155.991 327.517C156.147 327.644 156.331 327.751 156.544 327.837C156.763 327.923 157.002 327.967 157.261 327.967C157.48 327.967 157.688 327.938 157.883 327.88C158.085 327.817 158.246 327.722 158.367 327.595C158.494 327.468 158.557 327.304 158.557 327.103C158.557 326.89 158.483 326.725 158.333 326.61C158.189 326.489 158.004 326.4 157.78 326.342C157.561 326.279 157.348 326.221 157.14 326.17C156.593 326.06 156.083 325.89 155.611 325.66C155.145 325.429 154.767 325.133 154.479 324.77C154.197 324.401 154.056 323.958 154.056 323.439C154.056 322.869 154.206 322.377 154.505 321.962C154.811 321.547 155.205 321.227 155.689 321.003C156.179 320.778 156.706 320.666 157.27 320.666C157.955 320.666 158.583 320.81 159.154 321.098C159.73 321.38 160.185 321.78 160.519 322.299L158.851 323.284C158.771 323.146 158.658 323.019 158.514 322.904C158.37 322.783 158.206 322.685 158.022 322.61C157.837 322.529 157.644 322.483 157.443 322.472C157.184 322.46 156.947 322.483 156.734 322.541C156.521 322.598 156.348 322.696 156.216 322.834C156.089 322.973 156.026 323.157 156.026 323.387C156.026 323.606 156.112 323.77 156.285 323.88C156.458 323.984 156.665 324.064 156.907 324.122C157.155 324.179 157.391 324.243 157.616 324.312C158.123 324.479 158.598 324.683 159.041 324.925C159.491 325.167 159.851 325.464 160.121 325.815C160.392 326.167 160.522 326.587 160.51 327.077C160.51 327.635 160.343 328.125 160.009 328.546C159.675 328.96 159.243 329.277 158.713 329.496C158.189 329.715 157.627 329.801 157.028 329.755ZM161.989 329.6V320.96H164.097V321.729C164.391 321.418 164.742 321.173 165.151 320.994C165.56 320.81 166.001 320.718 166.473 320.718C167.072 320.718 167.622 320.859 168.123 321.141C168.63 321.423 169.033 321.801 169.333 322.273C169.638 321.801 170.041 321.423 170.542 321.141C171.043 320.859 171.593 320.718 172.193 320.718C172.826 320.718 173.399 320.873 173.912 321.184C174.43 321.49 174.842 321.901 175.147 322.42C175.458 322.932 175.614 323.506 175.614 324.139V329.6H173.506V324.701C173.506 324.367 173.422 324.061 173.255 323.785C173.094 323.503 172.875 323.278 172.599 323.111C172.328 322.938 172.023 322.852 171.683 322.852C171.343 322.852 171.035 322.935 170.758 323.102C170.488 323.264 170.269 323.482 170.102 323.759C169.935 324.035 169.851 324.349 169.851 324.701V329.6H167.743V324.701C167.743 324.349 167.662 324.035 167.501 323.759C167.34 323.482 167.121 323.264 166.844 323.102C166.568 322.935 166.26 322.852 165.92 322.852C165.586 322.852 165.281 322.938 165.004 323.111C164.728 323.278 164.506 323.503 164.339 323.785C164.177 324.061 164.097 324.367 164.097 324.701V329.6H161.989ZM183.691 320.96H185.799V329.6H183.691L183.596 328.528C183.36 328.914 183.046 329.228 182.654 329.47C182.268 329.706 181.81 329.824 181.28 329.824C180.641 329.824 180.042 329.703 179.483 329.461C178.924 329.219 178.432 328.885 178.006 328.459C177.585 328.033 177.254 327.54 177.012 326.982C176.776 326.423 176.658 325.824 176.658 325.185C176.658 324.568 176.77 323.989 176.995 323.448C177.225 322.906 177.545 322.431 177.954 322.022C178.363 321.613 178.835 321.294 179.371 321.063C179.906 320.833 180.482 320.718 181.099 320.718C181.669 320.718 182.179 320.844 182.628 321.098C183.083 321.351 183.469 321.674 183.786 322.066L183.691 320.96ZM181.228 327.794C181.678 327.794 182.075 327.682 182.421 327.457C182.766 327.232 183.037 326.93 183.233 326.55C183.429 326.164 183.527 325.74 183.527 325.28C183.527 324.813 183.429 324.39 183.233 324.01C183.037 323.624 182.763 323.318 182.412 323.094C182.066 322.869 181.672 322.757 181.228 322.757C180.785 322.757 180.379 322.872 180.01 323.102C179.647 323.327 179.356 323.629 179.137 324.01C178.924 324.39 178.818 324.813 178.818 325.28C178.818 325.746 178.927 326.17 179.146 326.55C179.365 326.93 179.656 327.232 180.019 327.457C180.387 327.682 180.791 327.794 181.228 327.794ZM190.069 329.755C189.62 329.726 189.185 329.637 188.765 329.487C188.35 329.332 187.981 329.122 187.659 328.857C187.336 328.592 187.089 328.275 186.916 327.906L188.696 327.146C188.765 327.261 188.877 327.385 189.033 327.517C189.188 327.644 189.372 327.751 189.586 327.837C189.804 327.923 190.043 327.967 190.303 327.967C190.522 327.967 190.729 327.938 190.925 327.88C191.126 327.817 191.288 327.722 191.409 327.595C191.535 327.468 191.599 327.304 191.599 327.103C191.599 326.89 191.524 326.725 191.374 326.61C191.23 326.489 191.046 326.4 190.821 326.342C190.602 326.279 190.389 326.221 190.182 326.17C189.634 326.06 189.125 325.89 188.652 325.66C188.186 325.429 187.809 325.133 187.521 324.77C187.238 324.401 187.097 323.958 187.097 323.439C187.097 322.869 187.247 322.377 187.546 321.962C187.852 321.547 188.246 321.227 188.73 321.003C189.22 320.778 189.747 320.666 190.311 320.666C190.997 320.666 191.625 320.81 192.195 321.098C192.771 321.38 193.226 321.78 193.56 322.299L191.892 323.284C191.812 323.146 191.699 323.019 191.555 322.904C191.411 322.783 191.247 322.685 191.063 322.61C190.879 322.529 190.686 322.483 190.484 322.472C190.225 322.46 189.989 322.483 189.776 322.541C189.562 322.598 189.39 322.696 189.257 322.834C189.13 322.973 189.067 323.157 189.067 323.387C189.067 323.606 189.154 323.77 189.326 323.88C189.499 323.984 189.706 324.064 189.948 324.122C190.196 324.179 190.432 324.243 190.657 324.312C191.164 324.479 191.639 324.683 192.082 324.925C192.532 325.167 192.892 325.464 193.162 325.815C193.433 326.167 193.563 326.587 193.551 327.077C193.551 327.635 193.384 328.125 193.05 328.546C192.716 328.96 192.284 329.277 191.754 329.496C191.23 329.715 190.668 329.801 190.069 329.755ZM199.181 329.6V317.504H203.501C204.158 317.504 204.751 317.668 205.281 317.996C205.817 318.324 206.24 318.765 206.551 319.318C206.862 319.871 207.018 320.479 207.018 321.141C207.018 321.821 206.856 322.437 206.534 322.99C206.217 323.537 205.791 323.975 205.255 324.303C204.719 324.626 204.135 324.787 203.501 324.787H201.289V329.6H199.181ZM201.289 322.679H203.277C203.576 322.679 203.85 322.604 204.097 322.454C204.345 322.305 204.541 322.103 204.685 321.85C204.835 321.596 204.909 321.314 204.909 321.003C204.909 320.686 204.835 320.401 204.685 320.147C204.541 319.894 204.345 319.692 204.097 319.543C203.85 319.393 203.576 319.318 203.277 319.318H201.289V322.679ZM211.808 329.824C211.014 329.824 210.288 329.62 209.631 329.211C208.98 328.802 208.459 328.252 208.067 327.561C207.681 326.869 207.488 326.106 207.488 325.271C207.488 324.643 207.601 324.056 207.825 323.508C208.05 322.955 208.358 322.472 208.75 322.057C209.147 321.636 209.608 321.308 210.132 321.072C210.656 320.836 211.215 320.718 211.808 320.718C212.482 320.718 213.099 320.862 213.657 321.15C214.222 321.432 214.7 321.821 215.092 322.316C215.483 322.811 215.768 323.376 215.947 324.01C216.126 324.643 216.166 325.306 216.068 325.997H209.752C209.833 326.319 209.965 326.61 210.15 326.869C210.334 327.123 210.567 327.327 210.849 327.483C211.132 327.633 211.451 327.71 211.808 327.716C212.177 327.722 212.511 327.635 212.811 327.457C213.116 327.273 213.369 327.025 213.571 326.714L215.722 327.215C215.371 327.981 214.847 328.609 214.15 329.098C213.453 329.582 212.672 329.824 211.808 329.824ZM209.683 324.416H213.934C213.87 324.07 213.735 323.759 213.528 323.482C213.326 323.2 213.076 322.976 212.776 322.809C212.477 322.642 212.154 322.558 211.808 322.558C211.463 322.558 211.143 322.642 210.849 322.809C210.556 322.97 210.305 323.192 210.098 323.474C209.896 323.75 209.758 324.064 209.683 324.416ZM217.474 329.6V320.96H219.582V321.729C219.876 321.418 220.227 321.173 220.636 320.994C221.045 320.81 221.486 320.718 221.958 320.718C222.557 320.718 223.107 320.859 223.608 321.141C224.115 321.423 224.518 321.801 224.818 322.273C225.123 321.801 225.526 321.423 226.027 321.141C226.528 320.859 227.078 320.718 227.678 320.718C228.311 320.718 228.884 320.873 229.397 321.184C229.915 321.49 230.327 321.901 230.632 322.42C230.943 322.932 231.099 323.506 231.099 324.139V329.6H228.991V324.701C228.991 324.367 228.907 324.061 228.74 323.785C228.579 323.503 228.36 323.278 228.084 323.111C227.813 322.938 227.508 322.852 227.168 322.852C226.828 322.852 226.52 322.935 226.243 323.102C225.973 323.264 225.754 323.482 225.587 323.759C225.42 324.035 225.336 324.349 225.336 324.701V329.6H223.228V324.701C223.228 324.349 223.147 324.035 222.986 323.759C222.825 323.482 222.606 323.264 222.329 323.102C222.053 322.935 221.745 322.852 221.405 322.852C221.071 322.852 220.766 322.938 220.489 323.111C220.213 323.278 219.991 323.503 219.824 323.785C219.662 324.061 219.582 324.367 219.582 324.701V329.6H217.474ZM237.477 320.718C238.318 320.718 239.084 320.922 239.775 321.331C240.466 321.74 241.017 322.29 241.426 322.981C241.834 323.667 242.039 324.427 242.039 325.262C242.039 325.89 241.921 326.481 241.685 327.034C241.449 327.586 241.12 328.073 240.7 328.494C240.285 328.908 239.801 329.234 239.248 329.47C238.701 329.706 238.111 329.824 237.477 329.824C236.936 329.824 236.455 329.703 236.034 329.461C235.619 329.214 235.271 328.894 234.989 328.502V329.6H232.881V316.64H234.989V322.04C235.271 321.648 235.619 321.331 236.034 321.089C236.455 320.842 236.936 320.718 237.477 320.718ZM237.451 327.785C237.9 327.785 238.306 327.673 238.669 327.448C239.038 327.218 239.332 326.913 239.551 326.532C239.77 326.152 239.879 325.729 239.879 325.262C239.879 324.802 239.77 324.381 239.551 324.001C239.332 323.615 239.038 323.31 238.669 323.085C238.301 322.86 237.895 322.748 237.451 322.748C237.013 322.748 236.622 322.863 236.276 323.094C235.93 323.318 235.66 323.624 235.464 324.01C235.268 324.39 235.17 324.807 235.17 325.262C235.17 325.729 235.268 326.155 235.464 326.541C235.66 326.921 235.93 327.224 236.276 327.448C236.622 327.673 237.013 327.785 237.451 327.785ZM249.942 320.96H252.05V329.6H249.942L249.847 328.528C249.611 328.914 249.297 329.228 248.905 329.47C248.519 329.706 248.061 329.824 247.531 329.824C246.892 329.824 246.293 329.703 245.734 329.461C245.176 329.219 244.683 328.885 244.257 328.459C243.836 328.033 243.505 327.54 243.263 326.982C243.027 326.423 242.909 325.824 242.909 325.185C242.909 324.568 243.021 323.989 243.246 323.448C243.476 322.906 243.796 322.431 244.205 322.022C244.614 321.613 245.086 321.294 245.622 321.063C246.158 320.833 246.734 320.718 247.35 320.718C247.92 320.718 248.43 320.844 248.879 321.098C249.334 321.351 249.72 321.674 250.037 322.066L249.942 320.96ZM247.48 327.794C247.929 327.794 248.326 327.682 248.672 327.457C249.018 327.232 249.288 326.93 249.484 326.55C249.68 326.164 249.778 325.74 249.778 325.28C249.778 324.813 249.68 324.39 249.484 324.01C249.288 323.624 249.015 323.318 248.663 323.094C248.318 322.869 247.923 322.757 247.48 322.757C247.036 322.757 246.63 322.872 246.261 323.102C245.898 323.327 245.608 323.629 245.389 324.01C245.176 324.39 245.069 324.813 245.069 325.28C245.069 325.746 245.178 326.17 245.397 326.55C245.616 326.93 245.907 327.232 246.27 327.457C246.639 327.682 247.042 327.794 247.48 327.794ZM261.686 324.139V329.6H259.578V324.692C259.578 324.352 259.494 324.044 259.327 323.768C259.16 323.485 258.936 323.264 258.653 323.102C258.377 322.935 258.069 322.852 257.729 322.852C257.389 322.852 257.078 322.935 256.796 323.102C256.519 323.264 256.298 323.485 256.131 323.768C255.969 324.044 255.889 324.352 255.889 324.692V329.6H253.78L253.772 320.96H255.88L255.889 321.729C256.182 321.418 256.534 321.173 256.943 320.994C257.352 320.81 257.792 320.718 258.265 320.718C258.892 320.718 259.466 320.873 259.984 321.184C260.502 321.49 260.914 321.901 261.219 322.42C261.531 322.932 261.686 323.506 261.686 324.139ZM268.038 323.068H266.362V329.6H264.254V323.068H262.975V320.96H264.254V318.247H266.362V320.96H268.038V323.068ZM269.255 326.403V320.96H271.363V325.85C271.363 326.19 271.447 326.501 271.614 326.783C271.781 327.059 272.002 327.281 272.279 327.448C272.561 327.61 272.869 327.69 273.203 327.69C273.549 327.69 273.86 327.61 274.137 327.448C274.413 327.281 274.635 327.059 274.802 326.783C274.969 326.501 275.052 326.19 275.052 325.85V320.96H277.161L277.169 329.6H275.061L275.052 328.813C274.753 329.124 274.399 329.372 273.99 329.556C273.581 329.735 273.143 329.824 272.676 329.824C272.049 329.824 271.475 329.672 270.957 329.366C270.439 329.055 270.024 328.643 269.713 328.131C269.408 327.612 269.255 327.036 269.255 326.403ZM113.077 351.567C112.478 350.98 111.991 350.352 111.617 349.684C111.248 349.016 110.975 348.296 110.796 347.524C110.623 346.752 110.537 345.922 110.537 345.035C110.537 344.621 110.577 344.154 110.658 343.636C110.738 343.117 110.854 342.59 111.003 342.055C111.153 341.513 111.332 341.003 111.539 340.525C111.752 340.042 111.988 339.621 112.248 339.264C112.507 338.907 112.783 338.653 113.077 338.504H115.185C114.943 338.671 114.701 338.933 114.459 339.29C114.223 339.647 113.996 340.062 113.777 340.534C113.564 341.001 113.371 341.499 113.198 342.029C113.031 342.559 112.898 343.083 112.8 343.601C112.703 344.12 112.651 344.598 112.645 345.035C112.651 345.934 112.777 346.795 113.025 347.619C113.279 348.437 113.598 349.183 113.984 349.857C114.37 350.525 114.77 351.095 115.185 351.567H113.077ZM117.084 350.6V338.504H121.404C122.061 338.504 122.654 338.668 123.184 338.996C123.72 339.324 124.143 339.765 124.454 340.318C124.765 340.871 124.921 341.479 124.921 342.141C124.921 342.821 124.76 343.437 124.437 343.99C124.12 344.537 123.694 344.975 123.158 345.303C122.623 345.626 122.038 345.787 121.404 345.787H119.192V350.6H117.084ZM119.192 343.679H121.18C121.479 343.679 121.753 343.604 122 343.454C122.248 343.305 122.444 343.103 122.588 342.85C122.738 342.596 122.813 342.314 122.813 342.003C122.813 341.686 122.738 341.401 122.588 341.147C122.444 340.894 122.248 340.692 122 340.543C121.753 340.393 121.479 340.318 121.18 340.318H119.192V343.679ZM125.817 347.403V341.96H127.926V346.85C127.926 347.19 128.009 347.501 128.176 347.783C128.343 348.059 128.565 348.281 128.841 348.448C129.124 348.61 129.432 348.69 129.766 348.69C130.112 348.69 130.423 348.61 130.699 348.448C130.976 348.281 131.197 348.059 131.364 347.783C131.531 347.501 131.615 347.19 131.615 346.85V341.96H133.723L133.732 350.6H131.624L131.615 349.813C131.315 350.124 130.961 350.372 130.552 350.556C130.143 350.735 129.705 350.824 129.239 350.824C128.611 350.824 128.038 350.672 127.52 350.366C127.001 350.055 126.586 349.643 126.275 349.131C125.97 348.612 125.817 348.036 125.817 347.403ZM138.01 350.755C137.561 350.726 137.126 350.637 136.705 350.487C136.291 350.332 135.922 350.122 135.599 349.857C135.277 349.592 135.029 349.275 134.856 348.906L136.636 348.146C136.705 348.261 136.818 348.385 136.973 348.517C137.129 348.644 137.313 348.751 137.526 348.837C137.745 348.923 137.984 348.967 138.243 348.967C138.462 348.967 138.669 348.938 138.865 348.88C139.067 348.817 139.228 348.722 139.349 348.595C139.476 348.468 139.539 348.304 139.539 348.103C139.539 347.89 139.464 347.725 139.315 347.61C139.171 347.489 138.986 347.4 138.762 347.342C138.543 347.279 138.33 347.221 138.122 347.17C137.575 347.06 137.065 346.89 136.593 346.66C136.126 346.429 135.749 346.133 135.461 345.77C135.179 345.401 135.038 344.958 135.038 344.439C135.038 343.869 135.188 343.377 135.487 342.962C135.792 342.547 136.187 342.227 136.671 342.003C137.16 341.778 137.687 341.666 138.252 341.666C138.937 341.666 139.565 341.81 140.135 342.098C140.711 342.38 141.166 342.78 141.501 343.299L139.833 344.284C139.752 344.146 139.64 344.019 139.496 343.904C139.352 343.783 139.188 343.685 139.004 343.61C138.819 343.529 138.626 343.483 138.425 343.472C138.165 343.46 137.929 343.483 137.716 343.541C137.503 343.598 137.33 343.696 137.198 343.834C137.071 343.973 137.008 344.157 137.008 344.387C137.008 344.606 137.094 344.77 137.267 344.88C137.44 344.984 137.647 345.064 137.889 345.122C138.137 345.179 138.373 345.243 138.597 345.312C139.104 345.479 139.58 345.683 140.023 345.925C140.472 346.167 140.832 346.464 141.103 346.815C141.374 347.167 141.503 347.587 141.492 348.077C141.492 348.635 141.325 349.125 140.991 349.546C140.657 349.96 140.225 350.277 139.695 350.496C139.171 350.715 138.609 350.801 138.01 350.755ZM147.602 344.068H145.925V350.6H143.817V344.068H142.539V341.96H143.817V339.247H145.925V341.96H147.602V344.068ZM148.818 347.403V341.96H150.926V346.85C150.926 347.19 151.01 347.501 151.177 347.783C151.344 348.059 151.566 348.281 151.842 348.448C152.124 348.61 152.432 348.69 152.767 348.69C153.112 348.69 153.423 348.61 153.7 348.448C153.976 348.281 154.198 348.059 154.365 347.783C154.532 347.501 154.616 347.19 154.616 346.85V341.96H156.724L156.732 350.6H154.624L154.616 349.813C154.316 350.124 153.962 350.372 153.553 350.556C153.144 350.735 152.706 350.824 152.24 350.824C151.612 350.824 151.039 350.672 150.52 350.366C150.002 350.055 149.587 349.643 149.276 349.131C148.971 348.612 148.818 348.036 148.818 347.403ZM158.289 351.567C158.704 351.095 159.104 350.525 159.49 349.857C159.876 349.183 160.193 348.437 160.44 347.619C160.694 346.795 160.823 345.934 160.829 345.035C160.823 344.598 160.772 344.12 160.674 343.601C160.576 343.083 160.44 342.559 160.268 342.029C160.101 341.499 159.908 341.001 159.689 340.534C159.476 340.062 159.248 339.647 159.006 339.29C158.77 338.933 158.531 338.671 158.289 338.504H160.397C160.691 338.653 160.967 338.907 161.227 339.264C161.486 339.621 161.719 340.042 161.926 340.525C162.14 341.003 162.321 341.513 162.471 342.055C162.621 342.59 162.736 343.117 162.816 343.636C162.897 344.154 162.937 344.621 162.937 345.035C162.937 345.922 162.851 346.752 162.678 347.524C162.505 348.296 162.232 349.016 161.857 349.684C161.483 350.352 160.996 350.98 160.397 351.567H158.289Z" fill="#005248"/>
<path d="M66.076 46.5996H61.783L56.4775 39.1881L55.5595 40.2816V46.5996H52.2655V27.6996H55.5595V35.1651L61.81 27.6996H66.1165L58.624 36.6096L66.076 46.5996ZM72.8393 46.9506C71.5973 46.9506 70.4633 46.6311 69.4373 45.9921C68.4203 45.3531 67.6058 44.4936 66.9938 43.4136C66.3908 42.3336 66.0893 41.1411 66.0893 39.8361C66.0893 38.8551 66.2648 37.9371 66.6158 37.0821C66.9668 36.2181 67.4483 35.4621 68.0603 34.8141C68.6813 34.1571 69.4013 33.6441 70.2203 33.2751C71.0393 32.9061 71.9123 32.7216 72.8393 32.7216C73.8923 32.7216 74.8553 32.9466 75.7283 33.3966C76.6103 33.8376 77.3573 34.4451 77.9693 35.2191C78.5813 35.9931 79.0268 36.8751 79.3058 37.8651C79.5848 38.8551 79.6478 39.8901 79.4948 40.9701H69.6263C69.7523 41.4741 69.9593 41.9286 70.2473 42.3336C70.5353 42.7296 70.8998 43.0491 71.3408 43.2921C71.7818 43.5261 72.2813 43.6476 72.8393 43.6566C73.4153 43.6656 73.9373 43.5306 74.4053 43.2516C74.8823 42.9636 75.2783 42.5766 75.5933 42.0906L78.9548 42.8736C78.4058 44.0706 77.5868 45.0516 76.4978 45.8166C75.4088 46.5726 74.1893 46.9506 72.8393 46.9506ZM69.5183 38.4996H76.1603C76.0613 37.9596 75.8498 37.4736 75.5258 37.0416C75.2108 36.6006 74.8193 36.2496 74.3513 35.9886C73.8833 35.7276 73.3793 35.5971 72.8393 35.5971C72.2993 35.5971 71.7998 35.7276 71.3408 35.9886C70.8818 36.2406 70.4903 36.5871 70.1663 37.0281C69.8513 37.4601 69.6353 37.9506 69.5183 38.4996ZM88.9273 36.3936H86.3083V46.5996H83.0143V36.3936H81.0163V33.0996H83.0143V28.8606H86.3083V33.0996H88.9273V36.3936ZM96.9916 46.9506C95.7496 46.9506 94.6156 46.6311 93.5896 45.9921C92.5726 45.3531 91.7581 44.4936 91.1461 43.4136C90.5431 42.3336 90.2416 41.1411 90.2416 39.8361C90.2416 38.8551 90.4171 37.9371 90.7681 37.0821C91.1191 36.2181 91.6006 35.4621 92.2126 34.8141C92.8336 34.1571 93.5536 33.6441 94.3726 33.2751C95.1916 32.9061 96.0646 32.7216 96.9916 32.7216C98.0446 32.7216 99.0076 32.9466 99.8806 33.3966C100.763 33.8376 101.51 34.4451 102.122 35.2191C102.734 35.9931 103.179 36.8751 103.458 37.8651C103.737 38.8551 103.8 39.8901 103.647 40.9701H93.7786C93.9046 41.4741 94.1116 41.9286 94.3996 42.3336C94.6876 42.7296 95.0521 43.0491 95.4931 43.2921C95.9341 43.5261 96.4336 43.6476 96.9916 43.6566C97.5676 43.6656 98.0896 43.5306 98.5576 43.2516C99.0346 42.9636 99.4306 42.5766 99.7456 42.0906L103.107 42.8736C102.558 44.0706 101.739 45.0516 100.65 45.8166C99.5611 46.5726 98.3416 46.9506 96.9916 46.9506ZM93.6706 38.4996H100.313C100.214 37.9596 100.002 37.4736 99.6781 37.0416C99.3631 36.6006 98.9716 36.2496 98.5036 35.9886C98.0356 35.7276 97.5316 35.5971 96.9916 35.5971C96.4516 35.5971 95.9521 35.7276 95.4931 35.9886C95.0341 36.2406 94.6426 36.5871 94.3186 37.0281C94.0036 37.4601 93.7876 37.9506 93.6706 38.4996ZM105.857 46.5996L105.844 33.0996H109.138L109.151 34.3011C109.61 33.8151 110.159 33.4326 110.798 33.1536C111.437 32.8656 112.126 32.7216 112.864 32.7216C113.359 32.7216 113.854 32.7936 114.349 32.9376L113.053 36.2586C112.711 36.1236 112.369 36.0561 112.027 36.0561C111.496 36.0561 111.01 36.1866 110.569 36.4476C110.137 36.6996 109.79 37.0461 109.529 37.4871C109.277 37.9191 109.151 38.4006 109.151 38.9316V46.5996H105.857ZM125.409 33.0996H128.703V46.5996H125.409L125.261 44.9256C124.892 45.5286 124.401 46.0191 123.789 46.3971C123.186 46.7661 122.471 46.9506 121.643 46.9506C120.644 46.9506 119.708 46.7616 118.835 46.3836C117.962 46.0056 117.192 45.4836 116.526 44.8176C115.869 44.1516 115.352 43.3821 114.974 42.5091C114.605 41.6361 114.42 40.7001 114.42 39.7011C114.42 38.7381 114.596 37.8336 114.947 36.9876C115.307 36.1416 115.806 35.3991 116.445 34.7601C117.084 34.1211 117.822 33.6216 118.659 33.2616C119.496 32.9016 120.396 32.7216 121.359 32.7216C122.25 32.7216 123.047 32.9196 123.749 33.3156C124.46 33.7116 125.063 34.2156 125.558 34.8276L125.409 33.0996ZM121.562 43.7781C122.264 43.7781 122.885 43.6026 123.425 43.2516C123.965 42.9006 124.388 42.4281 124.694 41.8341C125 41.2311 125.153 40.5696 125.153 39.8496C125.153 39.1206 125 38.4591 124.694 37.8651C124.388 37.2621 123.96 36.7851 123.411 36.4341C122.871 36.0831 122.255 35.9076 121.562 35.9076C120.869 35.9076 120.234 36.0876 119.658 36.4476C119.091 36.7986 118.637 37.2711 118.295 37.8651C117.962 38.4591 117.795 39.1206 117.795 39.8496C117.795 40.5786 117.966 41.2401 118.308 41.8341C118.65 42.4281 119.105 42.9006 119.672 43.2516C120.248 43.6026 120.878 43.7781 121.562 43.7781ZM143.759 38.0676V46.5996H140.465V38.9316C140.465 38.4006 140.335 37.9191 140.074 37.4871C139.813 37.0461 139.462 36.6996 139.021 36.4476C138.589 36.1866 138.107 36.0561 137.576 36.0561C137.045 36.0561 136.559 36.1866 136.118 36.4476C135.686 36.6996 135.34 37.0461 135.079 37.4871C134.827 37.9191 134.701 38.4006 134.701 38.9316V46.5996H131.407L131.393 33.0996H134.687L134.701 34.3011C135.16 33.8151 135.709 33.4326 136.348 33.1536C136.987 32.8656 137.675 32.7216 138.413 32.7216C139.394 32.7216 140.29 32.9646 141.1 33.4506C141.91 33.9276 142.553 34.5711 143.03 35.3811C143.516 36.1821 143.759 37.0776 143.759 38.0676ZM156.202 33.0996H159.496V46.8561C159.496 47.8281 159.298 48.7101 158.902 49.5021C158.506 50.3031 157.966 50.9871 157.282 51.5541C156.598 52.1301 155.815 52.5711 154.933 52.8771C154.051 53.1921 153.124 53.3496 152.152 53.3496C151.207 53.3496 150.298 53.1561 149.425 52.7691C148.552 52.3821 147.778 51.8511 147.103 51.1761C146.437 50.5101 145.929 49.7496 145.578 48.8946L148.588 47.5311C148.768 48.0261 149.038 48.4581 149.398 48.8271C149.767 49.2051 150.19 49.4976 150.667 49.7046C151.144 49.9206 151.639 50.0286 152.152 50.0286C152.674 50.0286 153.174 49.9566 153.651 49.8126C154.137 49.6686 154.573 49.4571 154.96 49.1781C155.347 48.9081 155.649 48.5751 155.865 48.1791C156.09 47.7921 156.202 47.3511 156.202 46.8561V44.9526C155.779 45.5466 155.248 46.0281 154.609 46.3971C153.97 46.7661 153.232 46.9506 152.395 46.9506C151.423 46.9506 150.514 46.7661 149.668 46.3971C148.822 46.0281 148.075 45.5196 147.427 44.8716C146.788 44.2146 146.284 43.4586 145.915 42.6036C145.555 41.7486 145.375 40.8306 145.375 39.8496C145.375 38.8686 145.555 37.9506 145.915 37.0956C146.284 36.2406 146.788 35.4891 147.427 34.8411C148.075 34.1841 148.822 33.6711 149.668 33.3021C150.514 32.9331 151.423 32.7486 152.395 32.7486C153.232 32.7486 153.97 32.9331 154.609 33.3021C155.248 33.6621 155.779 34.1391 156.202 34.7331V33.0996ZM152.436 43.7781C153.129 43.7781 153.741 43.6026 154.272 43.2516C154.812 42.8916 155.235 42.4146 155.541 41.8206C155.847 41.2176 156 40.5606 156 39.8496C156 39.1296 155.842 38.4726 155.527 37.8786C155.221 37.2846 154.798 36.8076 154.258 36.4476C153.727 36.0876 153.12 35.9076 152.436 35.9076C151.761 35.9076 151.144 36.0876 150.586 36.4476C150.028 36.7986 149.583 37.2711 149.25 37.8651C148.917 38.4591 148.75 39.1206 148.75 39.8496C148.75 40.5786 148.917 41.2401 149.25 41.8341C149.583 42.4281 150.028 42.9006 150.586 43.2516C151.144 43.6026 151.761 43.7781 152.436 43.7781ZM172.607 33.0996H175.901V46.5996H172.607L172.458 44.9256C172.089 45.5286 171.599 46.0191 170.987 46.3971C170.384 46.7661 169.668 46.9506 168.84 46.9506C167.841 46.9506 166.905 46.7616 166.032 46.3836C165.159 46.0056 164.39 45.4836 163.724 44.8176C163.067 44.1516 162.549 43.3821 162.171 42.5091C161.802 41.6361 161.618 40.7001 161.618 39.7011C161.618 38.7381 161.793 37.8336 162.144 36.9876C162.504 36.1416 163.004 35.3991 163.643 34.7601C164.282 34.1211 165.02 33.6216 165.857 33.2616C166.694 32.9016 167.594 32.7216 168.557 32.7216C169.448 32.7216 170.244 32.9196 170.946 33.3156C171.657 33.7116 172.26 34.2156 172.755 34.8276L172.607 33.0996ZM168.759 43.7781C169.461 43.7781 170.082 43.6026 170.622 43.2516C171.162 42.9006 171.585 42.4281 171.891 41.8341C172.197 41.2311 172.35 40.5696 172.35 39.8496C172.35 39.1206 172.197 38.4591 171.891 37.8651C171.585 37.2621 171.158 36.7851 170.609 36.4341C170.069 36.0831 169.452 35.9076 168.759 35.9076C168.066 35.9076 167.432 36.0876 166.856 36.4476C166.289 36.7986 165.834 37.2711 165.492 37.8651C165.159 38.4591 164.993 39.1206 164.993 39.8496C164.993 40.5786 165.164 41.2401 165.506 41.8341C165.848 42.4281 166.302 42.9006 166.869 43.2516C167.445 43.6026 168.075 43.7781 168.759 43.7781ZM190.957 38.0676V46.5996H187.663V38.9316C187.663 38.4006 187.532 37.9191 187.271 37.4871C187.01 37.0461 186.659 36.6996 186.218 36.4476C185.786 36.1866 185.305 36.0561 184.774 36.0561C184.243 36.0561 183.757 36.1866 183.316 36.4476C182.884 36.6996 182.537 37.0461 182.276 37.4871C182.024 37.9191 181.898 38.4006 181.898 38.9316V46.5996H178.604L178.591 33.0996H181.885L181.898 34.3011C182.357 33.8151 182.906 33.4326 183.545 33.1536C184.184 32.8656 184.873 32.7216 185.611 32.7216C186.592 32.7216 187.487 32.9646 188.297 33.4506C189.107 33.9276 189.751 34.5711 190.228 35.3811C190.714 36.1821 190.957 37.0776 190.957 38.0676ZM206.937 46.9506C205.893 46.9506 204.889 46.7886 203.926 46.4646C202.972 46.1316 202.135 45.6591 201.415 45.0471C200.695 44.4261 200.178 43.6836 199.863 42.8196L202.954 41.6856C203.08 42.0456 203.337 42.3741 203.724 42.6711C204.111 42.9681 204.583 43.2066 205.141 43.3866C205.699 43.5666 206.298 43.6566 206.937 43.6566C207.594 43.6566 208.206 43.5576 208.773 43.3596C209.349 43.1526 209.812 42.8691 210.163 42.5091C210.514 42.1401 210.69 41.7126 210.69 41.2266C210.69 40.7316 210.505 40.3266 210.136 40.0116C209.767 39.6876 209.295 39.4311 208.719 39.2421C208.143 39.0531 207.549 38.9091 206.937 38.8101C205.596 38.6031 204.394 38.2836 203.332 37.8516C202.27 37.4196 201.429 36.8211 200.808 36.0561C200.196 35.2911 199.89 34.3011 199.89 33.0861C199.89 31.9431 200.218 30.9441 200.875 30.0891C201.532 29.2341 202.396 28.5681 203.467 28.0911C204.538 27.6141 205.695 27.3756 206.937 27.3756C207.972 27.3756 208.971 27.5376 209.934 27.8616C210.897 28.1856 211.738 28.6581 212.458 29.2791C213.187 29.9001 213.709 30.6471 214.024 31.5201L210.919 32.6406C210.793 32.2806 210.537 31.9521 210.15 31.6551C209.763 31.3581 209.29 31.1241 208.732 30.9531C208.174 30.7731 207.576 30.6831 206.937 30.6831C206.298 30.6741 205.69 30.7776 205.114 30.9936C204.547 31.2006 204.084 31.4841 203.724 31.8441C203.364 32.2041 203.184 32.6181 203.184 33.0861C203.184 33.6891 203.35 34.1436 203.683 34.4496C204.025 34.7556 204.48 34.9806 205.047 35.1246C205.614 35.2596 206.244 35.3856 206.937 35.5026C208.197 35.7006 209.362 36.0336 210.433 36.5016C211.504 36.9696 212.364 37.5951 213.012 38.3781C213.66 39.1521 213.984 40.1016 213.984 41.2266C213.984 42.3696 213.66 43.3731 213.012 44.2371C212.364 45.0921 211.504 45.7581 210.433 46.2351C209.362 46.7121 208.197 46.9506 206.937 46.9506ZM216.665 33.0996H219.959V46.5996H216.665V33.0996ZM218.339 31.3581C217.853 31.3581 217.443 31.2006 217.11 30.8856C216.777 30.5616 216.611 30.1566 216.611 29.6706C216.611 29.1936 216.777 28.7931 217.11 28.4691C217.443 28.1451 217.848 27.9831 218.325 27.9831C218.802 27.9831 219.203 28.1451 219.527 28.4691C219.86 28.7931 220.026 29.1936 220.026 29.6706C220.026 30.1566 219.864 30.5616 219.54 30.8856C219.216 31.2006 218.816 31.3581 218.339 31.3581ZM223.099 46.5996V33.0996H226.393V34.3011C226.852 33.8151 227.401 33.4326 228.04 33.1536C228.679 32.8656 229.367 32.7216 230.105 32.7216C231.041 32.7216 231.901 32.9421 232.684 33.3831C233.476 33.8241 234.106 34.4136 234.574 35.1516C235.051 34.4136 235.681 33.8241 236.464 33.3831C237.247 32.9421 238.106 32.7216 239.042 32.7216C240.032 32.7216 240.928 32.9646 241.729 33.4506C242.539 33.9276 243.182 34.5711 243.659 35.3811C244.145 36.1821 244.388 37.0776 244.388 38.0676V46.5996H241.094V38.9451C241.094 38.4231 240.964 37.9461 240.703 37.5141C240.451 37.0731 240.109 36.7221 239.677 36.4611C239.254 36.1911 238.777 36.0561 238.246 36.0561C237.715 36.0561 237.233 36.1866 236.801 36.4476C236.378 36.6996 236.036 37.0416 235.775 37.4736C235.514 37.9056 235.384 38.3961 235.384 38.9451V46.5996H232.09V38.9451C232.09 38.3961 231.964 37.9056 231.712 37.4736C231.46 37.0416 231.118 36.6996 230.686 36.4476C230.254 36.1866 229.772 36.0561 229.241 36.0561C228.719 36.0561 228.242 36.1911 227.81 36.4611C227.378 36.7221 227.032 37.0731 226.771 37.5141C226.519 37.9461 226.393 38.4231 226.393 38.9451V46.5996H223.099ZM254.354 32.7216C255.668 32.7216 256.865 33.0411 257.945 33.6801C259.025 34.3191 259.884 35.1786 260.523 36.2586C261.162 37.3296 261.482 38.5176 261.482 39.8226C261.482 40.8036 261.297 41.7261 260.928 42.5901C260.559 43.4541 260.046 44.2146 259.389 44.8716C258.741 45.5196 257.985 46.0281 257.121 46.3971C256.266 46.7661 255.344 46.9506 254.354 46.9506C253.508 46.9506 252.756 46.7616 252.099 46.3836C251.451 45.9966 250.907 45.4971 250.466 44.8851V46.5996H247.172V26.3496H250.466V34.7871C250.907 34.1751 251.451 33.6801 252.099 33.3021C252.756 32.9151 253.508 32.7216 254.354 32.7216ZM254.313 43.7646C255.015 43.7646 255.65 43.5891 256.217 43.2381C256.793 42.8781 257.252 42.4011 257.594 41.8071C257.936 41.2131 258.107 40.5516 258.107 39.8226C258.107 39.1026 257.936 38.4456 257.594 37.8516C257.252 37.2486 256.793 36.7716 256.217 36.4206C255.641 36.0696 255.006 35.8941 254.313 35.8941C253.629 35.8941 253.017 36.0741 252.477 36.4341C251.937 36.7851 251.514 37.2621 251.208 37.8651C250.902 38.4591 250.749 39.1116 250.749 39.8226C250.749 40.5516 250.902 41.2176 251.208 41.8206C251.514 42.4146 251.937 42.8871 252.477 43.2381C253.017 43.5891 253.629 43.7646 254.313 43.7646ZM269.591 46.9506C268.349 46.9506 267.215 46.6311 266.189 45.9921C265.172 45.3531 264.358 44.4981 263.746 43.4271C263.143 42.3471 262.841 41.1546 262.841 39.8496C262.841 38.8596 263.017 37.9371 263.368 37.0821C263.719 36.2181 264.2 35.4621 264.812 34.8141C265.433 34.1571 266.153 33.6441 266.972 33.2751C267.791 32.9061 268.664 32.7216 269.591 32.7216C270.833 32.7216 271.963 33.0411 272.98 33.6801C274.006 34.3191 274.82 35.1786 275.423 36.2586C276.035 37.3386 276.341 38.5356 276.341 39.8496C276.341 40.8306 276.166 41.7486 275.815 42.6036C275.464 43.4586 274.978 44.2146 274.357 44.8716C273.745 45.5196 273.029 46.0281 272.21 46.3971C271.4 46.7661 270.527 46.9506 269.591 46.9506ZM269.591 43.6566C270.248 43.6566 270.838 43.4811 271.36 43.1301C271.882 42.7791 272.291 42.3156 272.588 41.7396C272.894 41.1636 273.047 40.5336 273.047 39.8496C273.047 39.1476 272.89 38.5086 272.575 37.9326C272.269 37.3476 271.85 36.8841 271.319 36.5421C270.797 36.1911 270.221 36.0156 269.591 36.0156C268.943 36.0156 268.358 36.1911 267.836 36.5421C267.314 36.8931 266.9 37.3611 266.594 37.9461C266.288 38.5311 266.135 39.1656 266.135 39.8496C266.135 40.5606 266.293 41.2041 266.608 41.7801C266.923 42.3561 267.341 42.8151 267.863 43.1571C268.394 43.4901 268.97 43.6566 269.591 43.6566ZM278.232 46.5996V26.3496H281.526V46.5996H278.232Z" fill="#005248"/>
<path d="M110.537 110.301V98.2048H114.857C115.513 98.2048 116.107 98.3689 116.637 98.6973C117.172 99.0256 117.596 99.4662 117.907 100.019C118.218 100.572 118.373 101.18 118.373 101.842C118.373 102.522 118.212 103.138 117.889 103.691C117.573 104.238 117.146 104.676 116.611 105.004C116.075 105.327 115.49 105.488 114.857 105.488H112.645V110.301H110.537ZM112.645 103.38H114.632C114.932 103.38 115.205 103.305 115.453 103.156C115.701 103.006 115.896 102.804 116.04 102.551C116.19 102.297 116.265 102.015 116.265 101.704C116.265 101.387 116.19 101.102 116.04 100.849C115.896 100.595 115.701 100.394 115.453 100.244C115.205 100.094 114.932 100.019 114.632 100.019H112.645V103.38ZM119.27 107.104V101.661H121.378V106.551C121.378 106.891 121.462 107.202 121.629 107.484C121.796 107.761 122.017 107.982 122.294 108.149C122.576 108.311 122.884 108.391 123.218 108.391C123.564 108.391 123.875 108.311 124.152 108.149C124.428 107.982 124.65 107.761 124.817 107.484C124.984 107.202 125.067 106.891 125.067 106.551V101.661H127.176L127.184 110.301H125.076L125.067 109.515C124.768 109.826 124.414 110.073 124.005 110.258C123.596 110.436 123.158 110.525 122.691 110.525C122.064 110.525 121.49 110.373 120.972 110.068C120.454 109.756 120.039 109.345 119.728 108.832C119.423 108.314 119.27 107.738 119.27 107.104ZM128.922 110.301L128.914 101.661H131.022L131.03 102.43C131.324 102.119 131.676 101.874 132.085 101.695C132.494 101.511 132.934 101.419 133.406 101.419C133.723 101.419 134.04 101.465 134.357 101.557L133.527 103.683C133.309 103.596 133.09 103.553 132.871 103.553C132.531 103.553 132.22 103.636 131.938 103.804C131.661 103.965 131.439 104.187 131.272 104.469C131.111 104.745 131.03 105.053 131.03 105.393V110.301H128.922ZM141.436 101.661H143.544V110.301H141.436L141.341 109.229C141.105 109.615 140.791 109.929 140.399 110.171C140.013 110.407 139.555 110.525 139.025 110.525C138.386 110.525 137.787 110.404 137.228 110.163C136.669 109.921 136.177 109.587 135.751 109.16C135.33 108.734 134.999 108.242 134.757 107.683C134.521 107.124 134.403 106.525 134.403 105.886C134.403 105.269 134.515 104.691 134.74 104.149C134.97 103.608 135.29 103.132 135.699 102.724C136.108 102.315 136.58 101.995 137.116 101.764C137.651 101.534 138.227 101.419 138.844 101.419C139.414 101.419 139.924 101.546 140.373 101.799C140.828 102.052 141.214 102.375 141.531 102.767L141.436 101.661ZM138.973 108.495C139.423 108.495 139.82 108.383 140.166 108.158C140.511 107.933 140.782 107.631 140.978 107.251C141.174 106.865 141.272 106.442 141.272 105.981C141.272 105.514 141.174 105.091 140.978 104.711C140.782 104.325 140.508 104.02 140.157 103.795C139.811 103.57 139.417 103.458 138.973 103.458C138.53 103.458 138.124 103.573 137.755 103.804C137.392 104.028 137.101 104.331 136.882 104.711C136.669 105.091 136.563 105.514 136.563 105.981C136.563 106.447 136.672 106.871 136.891 107.251C137.11 107.631 137.401 107.933 137.764 108.158C138.132 108.383 138.536 108.495 138.973 108.495Z" fill="#005248"/>
<path d="M110.537 259.1V247.004H114.857C115.513 247.004 116.107 247.168 116.637 247.496C117.172 247.824 117.596 248.265 117.907 248.818C118.218 249.371 118.373 249.979 118.373 250.641C118.373 251.321 118.212 251.937 117.889 252.49C117.573 253.037 117.146 253.475 116.611 253.803C116.075 254.126 115.49 254.287 114.857 254.287H112.645V259.1H110.537ZM112.645 252.179H114.632C114.932 252.179 115.205 252.104 115.453 251.954C115.701 251.805 115.896 251.603 116.04 251.35C116.19 251.096 116.265 250.814 116.265 250.503C116.265 250.186 116.19 249.901 116.04 249.647C115.896 249.394 115.701 249.192 115.453 249.043C115.205 248.893 114.932 248.818 114.632 248.818H112.645V252.179ZM123.483 259.324C122.752 259.324 122.092 259.151 121.505 258.806C120.917 258.46 120.451 257.997 120.105 257.415C119.759 256.827 119.587 256.176 119.587 255.462H121.695C121.695 255.785 121.77 256.078 121.919 256.343C122.075 256.608 122.288 256.822 122.559 256.983C122.829 257.138 123.138 257.216 123.483 257.216C123.8 257.216 124.094 257.138 124.364 256.983C124.641 256.822 124.863 256.608 125.03 256.343C125.197 256.078 125.28 255.785 125.28 255.462C125.28 255.042 125.168 254.693 124.943 254.417C124.719 254.134 124.405 253.924 124.002 253.786C123.604 253.648 123.14 253.579 122.611 253.579V251.954C123.325 251.954 123.889 251.819 124.304 251.548C124.724 251.278 124.935 250.88 124.935 250.356C124.935 250.085 124.866 249.838 124.727 249.613C124.589 249.388 124.405 249.21 124.174 249.077C123.95 248.939 123.702 248.87 123.431 248.87C123.155 248.87 122.887 248.939 122.628 249.077C122.369 249.21 122.155 249.388 121.988 249.613C121.827 249.838 121.747 250.085 121.747 250.356H119.638C119.638 249.861 119.739 249.397 119.941 248.965C120.142 248.527 120.419 248.144 120.77 247.816C121.127 247.487 121.531 247.231 121.98 247.047C122.435 246.857 122.91 246.762 123.405 246.762C124.056 246.762 124.658 246.923 125.211 247.246C125.764 247.568 126.208 248 126.542 248.542C126.876 249.083 127.043 249.688 127.043 250.356C127.043 250.822 126.933 251.28 126.715 251.73C126.496 252.179 126.185 252.496 125.781 252.68C126.133 252.807 126.427 253.02 126.663 253.319C126.899 253.613 127.077 253.95 127.198 254.33C127.325 254.705 127.388 255.082 127.388 255.462C127.388 256.171 127.21 256.819 126.853 257.406C126.496 257.988 126.02 258.454 125.427 258.806C124.84 259.151 124.192 259.324 123.483 259.324ZM137.786 259.1H135.039L131.643 254.356L131.056 255.056V259.1H128.947V247.004H131.056V251.782L135.056 247.004H137.812L133.017 252.706L137.786 259.1ZM148.839 259.324C148.021 259.324 147.252 259.163 146.532 258.84C145.812 258.512 145.179 258.06 144.632 257.484C144.09 256.908 143.664 256.243 143.353 255.488C143.048 254.728 142.895 253.916 142.895 253.052C142.895 252.182 143.048 251.37 143.353 250.615C143.664 249.855 144.09 249.19 144.632 248.619C145.179 248.043 145.812 247.594 146.532 247.271C147.252 246.943 148.021 246.779 148.839 246.779C149.818 246.779 150.72 247.006 151.544 247.462C152.367 247.911 153.05 248.513 153.591 249.267L151.708 250.278C151.368 249.858 150.945 249.521 150.438 249.267C149.937 249.014 149.404 248.887 148.839 248.887C148.309 248.887 147.811 248.997 147.345 249.215C146.878 249.429 146.469 249.728 146.118 250.114C145.766 250.494 145.493 250.938 145.297 251.445C145.101 251.946 145.003 252.481 145.003 253.052C145.003 253.628 145.101 254.166 145.297 254.667C145.498 255.168 145.775 255.612 146.126 255.998C146.478 256.378 146.884 256.678 147.345 256.896C147.811 257.11 148.309 257.216 148.839 257.216C149.415 257.216 149.951 257.089 150.446 256.836C150.947 256.577 151.368 256.237 151.708 255.816L153.591 256.836C153.05 257.585 152.367 258.187 151.544 258.642C150.72 259.097 149.818 259.324 148.839 259.324ZM158.568 259.324C157.773 259.324 157.047 259.12 156.39 258.711C155.74 258.302 155.218 257.755 154.827 257.069C154.441 256.378 154.248 255.615 154.248 254.78C154.248 254.146 154.36 253.556 154.585 253.008C154.809 252.455 155.118 251.972 155.509 251.557C155.907 251.136 156.367 250.808 156.892 250.572C157.416 250.336 157.974 250.218 158.568 250.218C159.363 250.218 160.086 250.422 160.736 250.831C161.393 251.24 161.914 251.79 162.3 252.481C162.692 253.173 162.888 253.939 162.888 254.78C162.888 255.407 162.775 255.995 162.551 256.542C162.326 257.089 162.015 257.573 161.618 257.994C161.226 258.408 160.768 258.734 160.244 258.97C159.726 259.206 159.167 259.324 158.568 259.324ZM158.568 257.216C158.988 257.216 159.366 257.104 159.7 256.879C160.034 256.654 160.296 256.358 160.486 255.989C160.682 255.621 160.78 255.217 160.78 254.78C160.78 254.33 160.679 253.921 160.477 253.553C160.281 253.178 160.014 252.882 159.674 252.663C159.34 252.438 158.971 252.326 158.568 252.326C158.153 252.326 157.779 252.438 157.445 252.663C157.11 252.887 156.846 253.187 156.65 253.561C156.454 253.936 156.356 254.342 156.356 254.78C156.356 255.235 156.457 255.646 156.658 256.015C156.86 256.384 157.128 256.678 157.462 256.896C157.802 257.11 158.17 257.216 158.568 257.216ZM164.242 259.1L164.233 250.46H166.341L166.35 251.229C166.644 250.918 166.995 250.673 167.404 250.494C167.813 250.31 168.254 250.218 168.726 250.218C169.043 250.218 169.359 250.264 169.676 250.356L168.847 252.481C168.628 252.395 168.409 252.352 168.19 252.352C167.85 252.352 167.539 252.435 167.257 252.602C166.981 252.764 166.759 252.985 166.592 253.268C166.43 253.544 166.35 253.852 166.35 254.192V259.1H164.242ZM178.594 253.639V259.1H176.485V254.192C176.485 253.852 176.402 253.544 176.235 253.268C176.068 252.985 175.843 252.764 175.561 252.602C175.284 252.435 174.976 252.352 174.636 252.352C174.297 252.352 173.986 252.435 173.703 252.602C173.427 252.764 173.205 252.985 173.038 253.268C172.877 253.544 172.796 253.852 172.796 254.192V259.1H170.688L170.679 250.46H172.787L172.796 251.229C173.09 250.918 173.441 250.673 173.85 250.494C174.259 250.31 174.7 250.218 175.172 250.218C175.8 250.218 176.373 250.373 176.891 250.684C177.41 250.99 177.822 251.401 178.127 251.92C178.438 252.432 178.594 253.006 178.594 253.639ZM183.948 259.324C183.153 259.324 182.427 259.12 181.77 258.711C181.12 258.302 180.598 257.752 180.207 257.061C179.821 256.369 179.628 255.606 179.628 254.771C179.628 254.143 179.74 253.556 179.965 253.008C180.189 252.455 180.498 251.972 180.889 251.557C181.287 251.136 181.747 250.808 182.272 250.572C182.796 250.336 183.354 250.218 183.948 250.218C184.622 250.218 185.238 250.362 185.797 250.65C186.361 250.932 186.839 251.321 187.231 251.816C187.623 252.311 187.908 252.876 188.086 253.51C188.265 254.143 188.305 254.806 188.207 255.497H181.891C181.972 255.819 182.105 256.11 182.289 256.369C182.473 256.623 182.706 256.827 182.989 256.983C183.271 257.133 183.591 257.21 183.948 257.216C184.316 257.222 184.65 257.135 184.95 256.957C185.255 256.773 185.509 256.525 185.71 256.214L187.862 256.715C187.51 257.481 186.986 258.109 186.289 258.598C185.592 259.082 184.812 259.324 183.948 259.324ZM181.822 253.916H186.073C186.01 253.57 185.874 253.259 185.667 252.982C185.466 252.7 185.215 252.476 184.915 252.309C184.616 252.142 184.293 252.058 183.948 252.058C183.602 252.058 183.282 252.142 182.989 252.309C182.695 252.47 182.444 252.692 182.237 252.974C182.035 253.25 181.897 253.564 181.822 253.916ZM189.622 259.1L189.613 250.46H191.721L191.73 251.229C192.024 250.918 192.375 250.673 192.784 250.494C193.193 250.31 193.634 250.218 194.106 250.218C194.423 250.218 194.739 250.264 195.056 250.356L194.227 252.481C194.008 252.395 193.789 252.352 193.57 252.352C193.23 252.352 192.919 252.435 192.637 252.602C192.361 252.764 192.139 252.985 191.972 253.268C191.81 253.544 191.73 253.852 191.73 254.192V259.1H189.622Z" fill="#005248"/>
<defs>
<filter id="filter0_d_1868_1984" x="33.5862" y="221.061" width="60.4798" height="74.7728" filterUnits="userSpaceOnUse" color-interpolation-filters="sRGB">
<feFlood flood-opacity="0" result="BackgroundImageFix"/>
<feColorMatrix in="SourceAlpha" type="matrix" values="0 0 0 0 0 0 0 0 0 0 0 0 0 0 0 0 0 0 127 0" result="hardAlpha"/>
<feOffset dy="4.32"/>
<feGaussianBlur stdDeviation="2.16"/>
<feComposite in2="hardAlpha" operator="out"/>
<feColorMatrix type="matrix" values="0 0 0 0 0 0 0 0 0 0 0 0 0 0 0 0 0 0 0.25 0"/>
<feBlend mode="normal" in2="BackgroundImageFix" result="effect1_dropShadow_1868_1984"/>
<feBlend mode="normal" in="SourceGraphic" in2="effect1_dropShadow_1868_1984" result="shape"/>
</filter>
<filter id="filter1_d_1868_1984" x="33.5862" y="302.961" width="60.4798" height="74.7728" filterUnits="userSpaceOnUse" color-interpolation-filters="sRGB">
<feFlood flood-opacity="0" result="BackgroundImageFix"/>
<feColorMatrix in="SourceAlpha" type="matrix" values="0 0 0 0 0 0 0 0 0 0 0 0 0 0 0 0 0 0 127 0" result="hardAlpha"/>
<feOffset dy="4.32"/>
<feGaussianBlur stdDeviation="2.16"/>
<feComposite in2="hardAlpha" operator="out"/>
<feColorMatrix type="matrix" values="0 0 0 0 0 0 0 0 0 0 0 0 0 0 0 0 0 0 0.25 0"/>
<feBlend mode="normal" in2="BackgroundImageFix" result="effect1_dropShadow_1868_1984"/>
<feBlend mode="normal" in="SourceGraphic" in2="effect1_dropShadow_1868_1984" result="shape"/>
</filter>
</defs>
</svg>
