<svg width="1352" height="773" viewBox="0 0 1352 773" fill="none" xmlns="http://www.w3.org/2000/svg">
<path d="M346.952 237.071C346.952 220.5 350.035 205.952 356.201 193.428C362.559 180.903 371.134 171.269 381.924 164.525C392.715 157.781 404.758 154.409 418.053 154.409C429.422 154.409 439.345 156.721 447.823 161.345C456.494 165.97 463.142 172.039 467.767 179.554V156.721H517.191V318H467.767V295.167C462.949 302.681 456.205 308.751 447.534 313.376C439.056 318 429.133 320.312 417.764 320.312C404.662 320.312 392.715 316.94 381.924 310.196C371.134 303.259 362.559 293.529 356.201 281.004C350.035 268.287 346.952 253.642 346.952 237.071ZM467.767 237.36C467.767 225.028 464.298 215.298 457.362 208.168C450.617 201.039 442.332 197.474 432.505 197.474C422.678 197.474 414.296 201.039 407.359 208.168C400.615 215.105 397.243 224.739 397.243 237.071C397.243 249.403 400.615 259.23 407.359 266.553C414.296 273.682 422.678 277.247 432.505 277.247C442.332 277.247 450.617 273.682 457.362 266.553C464.298 259.423 467.767 249.692 467.767 237.36ZM651.218 154.987C670.101 154.987 685.131 161.153 696.306 173.485C707.675 185.624 713.359 202.388 713.359 223.776V318H664.224V230.424C664.224 219.633 661.43 211.251 655.842 205.278C650.254 199.305 642.739 196.318 633.298 196.318C623.856 196.318 616.341 199.305 610.753 205.278C605.165 211.251 602.371 219.633 602.371 230.424V318H552.947V156.721H602.371V178.109C607.381 170.98 614.125 165.392 622.604 161.345C631.082 157.106 640.62 154.987 651.218 154.987ZM837.593 276.091V318H812.447C794.527 318 780.557 313.665 770.538 304.994C760.518 296.13 755.508 281.775 755.508 261.928V197.763H735.854V156.721H755.508V117.413H804.932V156.721H837.304V197.763H804.932V262.506C804.932 267.323 806.088 270.792 808.401 272.911C810.713 275.031 814.567 276.091 819.962 276.091H837.593ZM855.296 237.071C855.296 220.5 858.379 205.952 864.545 193.428C870.904 180.903 879.478 171.269 890.269 164.525C901.059 157.781 913.102 154.409 926.397 154.409C937.766 154.409 947.689 156.721 956.168 161.345C964.839 165.97 971.486 172.039 976.111 179.554V156.721H1025.53V318H976.111V295.167C971.294 302.681 964.55 308.751 955.879 313.376C947.4 318 937.477 320.312 926.108 320.312C913.006 320.312 901.059 316.94 890.269 310.196C879.478 303.259 870.904 293.529 864.545 281.004C858.379 268.287 855.296 253.642 855.296 237.071ZM976.111 237.36C976.111 225.028 972.642 215.298 965.706 208.168C958.962 201.039 950.676 197.474 940.849 197.474C931.022 197.474 922.64 201.039 915.703 208.168C908.959 215.105 905.587 224.739 905.587 237.071C905.587 249.403 908.959 259.23 915.703 266.553C922.64 273.682 931.022 277.247 940.849 277.247C950.676 277.247 958.962 273.682 965.706 266.553C972.642 259.423 976.111 249.692 976.111 237.36ZM1110.72 183.601C1116.5 174.737 1123.72 167.8 1132.39 162.79C1141.06 157.588 1150.7 154.987 1161.3 154.987V207.301H1147.71C1135.38 207.301 1126.13 209.999 1119.96 215.394C1113.8 220.597 1110.72 229.846 1110.72 243.141V318H1061.29V156.721H1110.72V183.601ZM1209.78 139.957C1201.11 139.957 1193.98 137.452 1188.39 132.442C1182.99 127.24 1180.3 120.881 1180.3 113.366C1180.3 105.659 1182.99 99.3 1188.39 94.2902C1193.98 89.0876 1201.11 86.4863 1209.78 86.4863C1218.25 86.4863 1225.19 89.0876 1230.59 94.2902C1236.17 99.3 1238.97 105.659 1238.97 113.366C1238.97 120.881 1236.17 127.24 1230.59 132.442C1225.19 137.452 1218.25 139.957 1209.78 139.957ZM1234.34 156.721V318H1184.92V156.721H1234.34Z" fill="#028372"/>
<path d="M164.259 126.432C164.259 127.363 166.2 133.223 167.17 136.037C171.827 134.581 179.627 131.438 173.573 130.506C166.006 129.342 164.259 125.267 164.259 126.432Z" fill="#028372"/>
<path d="M115.365 223.06C120.605 232.374 127.201 236.449 131.373 239.651C134.09 234.121 136.613 221.197 130.791 218.403C124.97 215.609 116.529 212.873 113.037 212.582C113.134 214.134 113.037 218.921 115.365 223.06Z" fill="#028372"/>
<path d="M120.899 164.265C122.296 174.045 125.847 181.146 131.377 186.968C136.131 178.527 144.358 161.296 139.236 158.735C134.113 156.173 125.459 148.353 121.772 144.764C120.899 147.189 119.502 154.485 120.899 164.265Z" fill="#028372"/>
<path fill-rule="evenodd" clip-rule="evenodd" d="M141.514 270.091C136.333 260.771 132.73 250.646 130.705 239.714C130.939 239.7 131.164 239.68 131.381 239.655C131.147 239.487 130.882 239.292 130.588 239.072C129.366 232.252 128.755 225.119 128.755 217.675L128.756 217.434C130.287 218.127 131.851 218.931 133.418 219.863C142.033 224.986 144.963 231.117 145.351 233.543C145.546 231.797 145.293 227.256 142.732 223.065C140.171 218.873 132.545 214.139 129.052 212.295C129.149 209.773 129.518 203.913 130.216 200.653C131.089 196.578 132.254 196.869 141.277 199.78C148.495 202.108 153.598 200.75 155.248 199.78C152.337 198.907 143.838 195.414 133.127 188.428C132.889 188.273 132.656 188.109 132.427 187.937C134.542 179.911 137.571 172.352 141.514 165.26C142.27 163.914 143.05 162.595 143.855 161.302C144.671 161.824 145.553 162.418 146.516 163.106C153.036 167.763 153.695 178.047 153.21 182.607L162.815 171.256L151.173 158.158C154.083 158.449 160.487 158.682 162.815 157.285C163.058 157.139 163.297 156.987 163.539 156.833C166.188 155.15 169.124 153.283 180.861 157.285C190.981 160.735 200.799 158.789 204.59 157.338C204.642 157.321 204.688 157.303 204.728 157.285C204.711 157.291 204.694 157.298 204.676 157.305C204.658 157.312 204.639 157.32 204.62 157.327L204.59 157.338C203.248 157.79 197.78 158.004 185.227 155.538C175.91 153.708 170.199 144.24 167.202 135.904C169.644 134.1 172.191 132.406 174.842 130.822C179.698 131.71 186.367 132.137 195.123 131.38C207.407 130.318 217.478 123.272 224.24 116.37C226.131 116.286 228.044 116.244 229.977 116.244C253.794 116.244 273.83 122.005 290.086 133.527C306.531 145.049 317.4 161.01 322.693 181.41H269.105C265.513 174.799 260.315 169.793 253.511 166.393C246.895 162.804 239.05 161.01 229.977 161.01C214.288 161.01 201.718 166.204 192.267 176.593C182.816 186.793 178.09 200.487 178.09 217.675C178.09 235.997 183.005 250.353 192.834 260.741C202.852 270.941 216.557 276.041 233.947 276.041C245.855 276.041 255.873 273.019 264.001 266.975C272.318 260.93 278.367 252.241 282.147 240.908H220.621V205.209H326.095V250.258C322.504 262.347 316.361 273.586 307.666 283.974C299.16 294.363 288.291 302.768 275.059 309.19C261.828 315.612 246.895 318.824 230.261 318.824C210.602 318.824 193.023 314.574 177.523 306.074C162.212 297.385 150.209 285.391 141.514 270.091ZM179.11 139.238C181.051 140.79 186.328 143.662 191.917 142.731C198.902 141.567 200.067 141.567 200.067 142.731C200.067 143.895 186.969 150.007 179.11 139.238Z" fill="#028372"/>
<path d="M137.777 150.59C147.556 158.042 160.285 152.725 165.427 149.135C162.323 148.844 153.901 147.039 145.053 142.15C136.205 137.26 134.769 127.305 135.157 122.939C135.739 124.104 137.777 127.596 141.269 132.253C145.635 138.075 154.949 141.567 157.569 142.15C160.188 142.732 163.681 140.112 154.949 119.156C146.217 98.1992 111.581 97.035 110.999 98.7813C110.417 100.528 120.313 106.64 120.895 119.156C121.477 131.671 125.552 141.276 137.777 150.59Z" fill="#028372"/>
<path fill-rule="evenodd" clip-rule="evenodd" d="M69.9585 95.5762C71.1227 105.472 77.2933 126.778 92.6613 132.832C108.029 138.886 116.722 138.459 119.148 137.489C115.364 134.287 107.04 124.799 104.013 112.458C100.986 100.117 80.0486 96.0613 69.9585 95.5762ZM78.9799 104.307C82.6667 107.315 90.3895 114.203 91.7866 117.696C93.1837 121.189 99.1602 124.391 101.974 125.555C98.4811 119.637 88.9924 107.102 78.9799 104.307Z" fill="#028372"/>
<path d="M93.5325 166.308C94.9296 157.926 103.817 151.561 108.086 149.427C108.862 152.337 110.181 160.254 109.25 168.637C108.319 177.019 99.3537 182.802 94.9878 184.645C93.9205 182.026 92.1354 174.691 93.5325 166.308Z" fill="#028372"/>
<path d="M51.0378 141.271C62.9131 143.833 71.3151 140.204 74.0317 138.07C73.5466 135.547 69.7239 129.454 58.3143 125.263C46.9047 121.072 35.7085 125.651 31.5366 128.465C33.089 131.666 39.1624 138.71 51.0378 141.271Z" fill="#028372"/>
<path d="M61.2292 67.6336C65.8862 72.9892 76.9465 73.94 81.8946 73.7459C81.8946 71.7085 80.6139 65.9455 75.4912 59.1928C70.3685 52.4402 58.9977 50.558 53.9526 50.4609C54.4377 53.9537 56.5722 62.2781 61.2292 67.6336Z" fill="#028372"/>
<path d="M99.0661 60.0668C102.268 73.1646 118.567 79.859 121.187 79.859C122.351 76.8514 124.098 68.1583 121.769 57.4472C119.441 46.7361 105.664 36.8788 99.0661 33.2891C97.9989 37.849 96.5048 49.5886 99.0661 60.0668Z" fill="#028372"/>
<path d="M139.817 83.0588C140.283 95.3998 148.161 105.083 152.042 108.381C148.083 90.2189 151.751 77.7227 154.079 73.7448C153.4 75.4912 152.449 81.4289 154.079 91.2085C155.709 100.988 158.833 106.732 160.191 108.381C161.065 106.247 163.568 97.8448 166.595 81.3124C169.622 64.7801 153.885 50.3628 145.638 45.2207C146.22 46.2879 147.035 50.1688 145.638 57.1543C143.892 65.8861 139.235 67.6325 139.817 83.0588Z" fill="#028372"/>
<path d="M176.194 64.1415C176.892 71.3598 175.32 81.7023 174.447 85.9712C177.455 84.7099 184.984 79.8589 191.038 70.5449C198.605 58.9024 192.202 47.551 191.038 46.3867C189.874 45.2225 175.32 55.1186 176.194 64.1415Z" fill="#028372"/>
<path d="M170.953 97.6134C162.105 109.023 162.609 119.831 163.968 123.809C167.557 123.809 176.367 122.47 182.887 117.115C189.406 111.759 193.559 93.1504 194.82 84.5156C190.551 84.1275 179.801 86.2038 170.953 97.6134Z" fill="#028372"/>
<path d="M196.28 112.167C193.253 117.755 182.018 124.585 176.779 127.302C203.091 134.054 215.878 119.443 218.983 111.293C212.676 109.256 199.307 106.578 196.28 112.167Z" fill="#028372"/>
<path d="M200.646 86.8472C195.756 94.2984 195.698 103.341 196.28 106.931C211.881 103.903 216.557 85.877 216.945 77.2422C213.549 77.3392 205.536 79.396 200.646 86.8472Z" fill="#028372"/>
<path d="M509.559 545.576C509.559 550.868 509.228 556.381 508.567 562.115H380.55C381.432 573.583 385.071 582.404 391.466 588.579C398.082 594.533 406.131 597.51 415.614 597.51C429.728 597.51 439.541 591.556 445.055 579.647H505.259C502.171 591.776 496.548 602.692 488.388 612.396C480.449 622.099 470.415 629.707 458.286 635.22C446.157 640.733 432.595 643.49 417.599 643.49C399.515 643.49 383.417 639.631 369.303 631.912C355.189 624.194 344.163 613.167 336.224 598.833C328.285 584.499 324.315 567.739 324.315 548.553C324.315 529.367 328.175 512.607 335.893 498.272C343.832 483.938 354.859 472.912 368.972 465.193C383.086 457.475 399.295 453.615 417.599 453.615C435.462 453.615 451.34 457.364 465.233 464.862C479.126 472.36 489.932 483.056 497.651 496.949C505.59 510.842 509.559 527.051 509.559 545.576ZM451.67 530.69C451.67 520.987 448.362 513.268 441.747 507.535C435.131 501.801 426.861 498.934 416.937 498.934C407.455 498.934 399.405 501.691 392.789 507.204C386.394 512.717 382.425 520.546 380.881 530.69H451.67ZM651.869 454.277C673.481 454.277 690.682 461.334 703.473 475.448C716.484 489.341 722.99 508.527 722.99 533.006V640.844H666.755V540.614C666.755 528.264 663.557 518.671 657.162 511.835C650.767 504.998 642.166 501.58 631.36 501.58C620.554 501.58 611.954 504.998 605.559 511.835C599.163 518.671 595.966 528.264 595.966 540.614V640.844H539.4V456.262H595.966V480.74C601.699 472.581 609.418 466.185 619.121 461.554C628.824 456.703 639.74 454.277 651.869 454.277ZM832.425 453.615C845.436 453.615 856.793 456.262 866.497 461.554C876.42 466.847 884.029 473.794 889.321 482.394V456.262H945.887V640.513C945.887 657.494 942.469 672.82 935.632 686.493C929.016 700.386 918.762 711.413 904.869 719.572C891.196 727.732 874.105 731.812 853.596 731.812C826.25 731.812 804.087 725.306 787.107 712.295C770.126 699.504 760.423 682.083 757.997 660.03H813.901C815.665 667.087 819.855 672.6 826.471 676.569C833.087 680.759 841.246 682.854 850.949 682.854C862.637 682.854 871.9 679.436 878.736 672.6C885.793 665.984 889.321 655.288 889.321 640.513V614.38C883.808 622.981 876.2 630.038 866.497 635.551C856.793 640.844 845.436 643.49 832.425 643.49C817.209 643.49 803.426 639.631 791.076 631.912C778.726 623.973 768.913 612.837 761.636 598.502C754.579 583.947 751.05 567.187 751.05 548.222C751.05 529.257 754.579 512.607 761.636 498.272C768.913 483.938 778.726 472.912 791.076 465.193C803.426 457.475 817.209 453.615 832.425 453.615ZM889.321 548.553C889.321 534.439 885.352 523.302 877.413 515.143C869.694 506.983 860.212 502.903 848.965 502.903C837.718 502.903 828.125 506.983 820.186 515.143C812.467 523.082 808.608 534.108 808.608 548.222C808.608 562.336 812.467 573.583 820.186 581.963C828.125 590.122 837.718 594.202 848.965 594.202C860.212 594.202 869.694 590.122 877.413 581.963C885.352 573.803 889.321 562.667 889.321 548.553ZM1251.77 456.262L1201.82 640.844H1139.3L1110.19 521.097L1080.09 640.844H1017.9L967.623 456.262H1024.19L1050.32 588.248L1081.42 456.262H1141.29L1172.71 587.586L1198.52 456.262H1251.77ZM1301.79 437.076C1291.87 437.076 1283.71 434.209 1277.31 428.475C1271.14 422.521 1268.05 415.244 1268.05 406.643C1268.05 397.822 1271.14 390.544 1277.31 384.811C1283.71 378.856 1291.87 375.879 1301.79 375.879C1311.5 375.879 1319.44 378.856 1325.61 384.811C1332.01 390.544 1335.2 397.822 1335.2 406.643C1335.2 415.244 1332.01 422.521 1325.61 428.475C1319.44 434.209 1311.5 437.076 1301.79 437.076ZM1329.91 456.262V640.844H1273.35V456.262H1329.91Z" fill="#028372"/>
<path fill-rule="evenodd" clip-rule="evenodd" d="M39.6514 441.775C40.0345 441.851 40.4077 441.905 40.7679 441.933C45.2833 442.295 47.7668 442.084 48.4441 441.933C46.3214 441.226 42.8176 439.74 39.6514 437.698V422.476C41.6598 423.148 43.6449 424.047 45.2833 425.226C49.7987 428.477 53.3358 435.913 54.5399 439.224C54.9914 438.321 55.8494 436.109 55.6688 434.483C55.4881 432.857 54.8409 431.397 54.5399 430.871C55.443 431.849 57.9265 433.941 60.6357 434.483C63.345 435.025 66.1295 434.709 67.1831 434.483C66.8068 434.031 64.7899 432.677 59.7326 430.871C54.6754 429.064 52.3574 426.807 51.8306 425.904C54.5399 425.904 60.8615 425.272 64.4738 422.743C68.9892 419.582 76.4397 421.162 78.6974 423.194C80.5035 424.82 84.7179 428.086 86.5993 429.516C86.8251 428.914 86.4187 426.716 82.987 422.743C79.5553 418.769 75.5366 418.077 73.9562 418.227C73.9562 416.271 74.4328 412.155 76.137 408.554H84.1077C83.2041 412.332 81.7811 415.522 81.1808 416.647C82.4602 416.12 85.335 414.073 86.5993 410.1C86.748 409.632 86.8628 409.113 86.9483 408.554H106.361L171.42 569.054L235.818 408.554H302.198V640.387H245.725V501.353L193.877 640.387H148.303L96.1236 501.023V640.387H39.6514V441.775Z" fill="#028372"/>
<path d="M77.7923 404.909C76.1667 407.618 75.3088 410.478 75.083 411.23L78.9211 415.52C79.8994 415.37 82.3077 413.804 84.1138 408.747C85.92 403.69 84.4149 400.77 83.4365 399.942C81.6304 400.168 79.4178 402.2 77.7923 404.909Z" fill="#028372"/>
<path d="M30.6135 425.229C31.336 427.938 31.9682 429.518 34.9032 433.808C38.5155 434.711 39.8701 422.52 36.4836 421.616C33.7743 420.894 30.8393 420.713 29.7104 420.713C29.7104 421.09 29.8911 422.52 30.6135 425.229Z" fill="#028372"/>
<path d="M28.8086 402.649C29.7117 414.751 42.2796 421.388 48.4507 423.195C41.0454 416.151 39.9467 404.305 40.3229 399.263C40.5487 401.219 41.6324 406.307 44.161 411.003C46.6897 415.699 51.5362 420.034 53.6434 421.614C54.0949 417.324 53.2822 405.901 46.4187 394.522C39.5553 383.143 28.2066 381.201 23.3901 381.653C24.82 383.609 27.9056 390.548 28.8086 402.649Z" fill="#028372"/>
<path d="M61.9991 403.101C56.7612 410.506 57.7095 417.174 58.8383 419.582C70.7591 421.93 76.5989 402.198 78.0288 392.038C74.868 392.64 67.237 395.696 61.9991 403.101Z" fill="#028372"/>
<path d="M49.8079 384.811C49.6273 390.59 53.7965 397.303 55.9037 399.937C57.4841 398.808 60.9159 394.699 61.9996 387.294C63.0833 379.889 58.3872 373.823 55.9037 371.716C53.9471 373.673 49.9885 379.031 49.8079 384.811Z" fill="#028372"/>
<path d="M3.52188 389.553C6.9536 396.416 16.3908 399.186 20.6805 399.713C21.0567 398.509 20.861 394.339 17.0681 387.295C13.2751 380.251 4.19917 377.738 0.135321 377.361C-0.165707 378.565 0.0901669 382.69 3.52188 389.553Z" fill="#028372"/>
</svg>
