<svg width="1352" height="773" viewBox="0 0 1352 773" fill="none" xmlns="http://www.w3.org/2000/svg">
<path d="M346.91 237.071C346.91 220.5 349.993 205.952 356.159 193.428C362.518 180.903 371.092 171.269 381.883 164.525C392.673 157.781 404.716 154.409 418.012 154.409C429.38 154.409 439.304 156.721 447.782 161.345C456.453 165.97 463.101 172.039 467.725 179.554V156.721H517.149V318H467.725V295.167C462.908 302.681 456.164 308.751 447.493 313.376C439.015 318 429.091 320.312 417.723 320.312C404.62 320.312 392.673 316.94 381.883 310.196C371.092 303.259 362.518 293.529 356.159 281.004C349.993 268.287 346.91 253.642 346.91 237.071ZM467.725 237.36C467.725 225.028 464.257 215.298 457.32 208.168C450.576 201.039 442.29 197.474 432.463 197.474C422.636 197.474 414.254 201.039 407.318 208.168C400.574 215.105 397.202 224.739 397.202 237.071C397.202 249.403 400.574 259.23 407.318 266.553C414.254 273.682 422.636 277.247 432.463 277.247C442.29 277.247 450.576 273.682 457.32 266.553C464.257 259.423 467.725 249.692 467.725 237.36ZM651.176 154.987C670.059 154.987 685.089 161.153 696.265 173.485C707.633 185.624 713.318 202.388 713.318 223.776V318H664.182V230.424C664.182 219.633 661.389 211.251 655.801 205.278C650.213 199.305 642.698 196.318 633.256 196.318C623.815 196.318 616.3 199.305 610.712 205.278C605.124 211.251 602.33 219.633 602.33 230.424V318H552.906V156.721H602.33V178.109C607.34 170.98 614.084 165.392 622.562 161.345C631.04 157.106 640.578 154.987 651.176 154.987ZM837.551 276.091V318H812.406C794.486 318 780.516 313.665 770.496 304.994C760.476 296.13 755.467 281.775 755.467 261.928V197.763H735.812V156.721H755.467V117.413H804.891V156.721H837.262V197.763H804.891V262.506C804.891 267.323 806.047 270.792 808.359 272.911C810.671 275.031 814.525 276.091 819.92 276.091H837.551ZM855.254 237.071C855.254 220.5 858.337 205.952 864.503 193.428C870.862 180.903 879.437 171.269 890.227 164.525C901.018 157.781 913.061 154.409 926.356 154.409C937.724 154.409 947.648 156.721 956.126 161.345C964.797 165.97 971.445 172.039 976.069 179.554V156.721H1025.49V318H976.069V295.167C971.252 302.681 964.508 308.751 955.837 313.376C947.359 318 937.435 320.312 926.067 320.312C912.964 320.312 901.018 316.94 890.227 310.196C879.437 303.259 870.862 293.529 864.503 281.004C858.337 268.287 855.254 253.642 855.254 237.071ZM976.069 237.36C976.069 225.028 972.601 215.298 965.664 208.168C958.92 201.039 950.635 197.474 940.807 197.474C930.98 197.474 922.599 201.039 915.662 208.168C908.918 215.105 905.546 224.739 905.546 237.071C905.546 249.403 908.918 259.23 915.662 266.553C922.599 273.682 930.98 277.247 940.807 277.247C950.635 277.247 958.92 273.682 965.664 266.553C972.601 259.423 976.069 249.692 976.069 237.36ZM1110.67 183.601C1116.45 174.737 1123.68 167.8 1132.35 162.79C1141.02 157.588 1150.66 154.987 1161.25 154.987V207.301H1147.67C1135.34 207.301 1126.09 209.999 1119.92 215.394C1113.76 220.597 1110.67 229.846 1110.67 243.141V318H1061.25V156.721H1110.67V183.601ZM1209.73 139.957C1201.06 139.957 1193.93 137.452 1188.35 132.442C1182.95 127.24 1180.25 120.881 1180.25 113.366C1180.25 105.659 1182.95 99.3 1188.35 94.2902C1193.93 89.0876 1201.06 86.4863 1209.73 86.4863C1218.21 86.4863 1225.15 89.0876 1230.55 94.2902C1236.13 99.3 1238.93 105.659 1238.93 113.366C1238.93 120.881 1236.13 127.24 1230.55 132.442C1225.15 137.452 1218.21 139.957 1209.73 139.957ZM1234.3 156.721V318H1184.88V156.721H1234.3Z" fill="white"/>
<path d="M164.218 126.432C164.218 127.363 166.158 133.223 167.128 136.037C171.785 134.581 179.586 131.438 173.532 130.506C165.964 129.342 164.218 125.267 164.218 126.432Z" fill="white"/>
<path d="M115.324 223.06C120.563 232.374 127.16 236.449 131.332 239.651C134.048 234.121 136.571 221.197 130.75 218.403C124.929 215.609 116.488 212.873 112.995 212.582C113.092 214.134 112.995 218.921 115.324 223.06Z" fill="white"/>
<path d="M120.857 164.265C122.254 174.045 125.805 181.146 131.336 186.968C136.09 178.527 144.317 161.296 139.194 158.735C134.071 156.173 125.417 148.353 121.731 144.764C120.857 147.189 119.46 154.485 120.857 164.265Z" fill="white"/>
<path fill-rule="evenodd" clip-rule="evenodd" d="M141.473 270.091C136.291 260.771 132.688 250.646 130.663 239.714C130.897 239.7 131.123 239.68 131.339 239.655C131.106 239.487 130.84 239.292 130.546 239.072C129.325 232.252 128.714 225.119 128.714 217.675L128.714 217.434C130.245 218.127 131.81 218.931 133.376 219.863C141.992 224.986 144.922 231.117 145.31 233.543C145.504 231.797 145.252 227.256 142.69 223.065C140.129 218.873 132.503 214.139 129.011 212.295C129.108 209.773 129.476 203.913 130.175 200.653C131.048 196.578 132.212 196.869 141.235 199.78C148.453 202.108 153.557 200.75 155.206 199.78C152.295 198.907 143.796 195.414 133.085 188.428C132.848 188.273 132.614 188.109 132.386 187.937C134.501 179.911 137.53 172.352 141.473 165.26C142.228 163.914 143.009 162.595 143.814 161.302C144.63 161.824 145.511 162.418 146.474 163.106C152.994 167.763 153.654 178.047 153.169 182.607L162.774 171.256L151.131 158.158C154.042 158.449 160.445 158.682 162.774 157.285C163.017 157.139 163.256 156.987 163.497 156.833C166.146 155.15 169.082 153.283 180.82 157.285C190.94 160.735 200.757 158.789 204.549 157.338C204.601 157.321 204.647 157.303 204.687 157.285C204.669 157.291 204.652 157.298 204.635 157.305C204.616 157.312 204.597 157.32 204.578 157.327L204.549 157.338C203.206 157.79 197.738 158.004 185.185 155.538C175.868 153.708 170.157 144.24 167.16 135.904C169.603 134.1 172.149 132.406 174.8 130.822C179.656 131.71 186.326 132.137 195.082 131.38C207.366 130.318 217.436 123.272 224.198 116.37C226.09 116.286 228.002 116.244 229.936 116.244C253.753 116.244 273.789 122.005 290.045 133.527C306.49 145.049 317.359 161.01 322.651 181.41H269.063C265.472 174.799 260.274 169.793 253.469 166.393C246.853 162.804 239.009 161.01 229.936 161.01C214.247 161.01 201.677 166.204 192.226 176.593C182.774 186.793 178.049 200.487 178.049 217.675C178.049 235.997 182.963 250.353 192.793 260.741C202.811 270.941 216.515 276.041 233.905 276.041C245.814 276.041 255.832 273.019 263.96 266.975C272.277 260.93 278.326 252.241 282.106 240.908H220.579V205.209H326.054V250.258C322.462 262.347 316.319 273.586 307.624 283.974C299.118 294.363 288.249 302.768 275.018 309.19C261.786 315.612 246.853 318.824 230.219 318.824C210.561 318.824 192.982 314.574 177.482 306.074C162.171 297.385 150.168 285.391 141.473 270.091ZM179.069 139.238C181.009 140.79 186.287 143.662 191.875 142.731C198.861 141.567 200.025 141.567 200.025 142.731C200.025 143.895 186.927 150.007 179.069 139.238Z" fill="white"/>
<path d="M137.735 150.59C147.515 158.042 160.244 152.725 165.386 149.135C162.281 148.844 153.86 147.039 145.012 142.15C136.163 137.26 134.727 127.305 135.115 122.939C135.698 124.104 137.735 127.596 141.228 132.253C145.594 138.075 154.908 141.567 157.527 142.15C160.147 142.732 163.64 140.112 154.908 119.156C146.176 98.1992 111.539 97.035 110.957 98.7813C110.375 100.528 120.271 106.64 120.853 119.156C121.436 131.671 125.51 141.276 137.735 150.59Z" fill="white"/>
<path fill-rule="evenodd" clip-rule="evenodd" d="M69.917 95.5762C71.0812 105.472 77.2518 126.778 92.6198 132.832C107.988 138.886 116.681 138.459 119.106 137.489C115.323 134.287 106.998 124.799 103.971 112.458C100.944 100.117 80.0071 96.0613 69.917 95.5762ZM78.9384 104.307C82.6252 107.315 90.348 114.203 91.7451 117.696C93.1422 121.189 99.1187 124.391 101.932 125.555C98.4396 119.637 88.9509 107.102 78.9384 104.307Z" fill="white"/>
<path d="M93.4905 166.308C94.8876 157.926 103.775 151.561 108.044 149.427C108.82 152.337 110.139 160.254 109.208 168.637C108.277 177.019 99.3117 182.802 94.9458 184.645C93.8786 182.026 92.0934 174.691 93.4905 166.308Z" fill="white"/>
<path d="M50.9963 141.271C62.8716 143.833 71.2736 140.204 73.9902 138.07C73.505 135.547 69.6824 129.454 58.2728 125.263C46.8632 121.072 35.667 125.651 31.4951 128.465C33.0474 131.666 39.1209 138.71 50.9963 141.271Z" fill="white"/>
<path d="M61.1877 67.6336C65.8447 72.9892 76.905 73.94 81.8531 73.7459C81.8531 71.7085 80.5724 65.9455 75.4497 59.1928C70.327 52.4402 58.9562 50.558 53.9111 50.4609C54.3962 53.9537 56.5307 62.2781 61.1877 67.6336Z" fill="white"/>
<path d="M99.0246 60.0668C102.226 73.1646 118.526 79.859 121.145 79.859C122.31 76.8514 124.056 68.1583 121.728 57.4472C119.399 46.7361 105.622 36.8788 99.0246 33.2891C97.9574 37.849 96.4633 49.5886 99.0246 60.0668Z" fill="white"/>
<path d="M139.776 83.0588C140.241 95.3998 148.119 105.083 152 108.381C148.042 90.2189 151.709 77.7227 154.038 73.7448C153.358 75.4912 152.408 81.4289 154.038 91.2085C155.668 100.988 158.792 106.732 160.15 108.381C161.023 106.247 163.526 97.8448 166.553 81.3124C169.58 64.7801 153.844 50.3628 145.597 45.2207C146.179 46.2879 146.994 50.1688 145.597 57.1543C143.85 65.8861 139.193 67.6325 139.776 83.0588Z" fill="white"/>
<path d="M176.152 64.1415C176.85 71.3598 175.278 81.7023 174.405 85.9712C177.413 84.7099 184.942 79.8589 190.996 70.5449C198.563 58.9024 192.16 47.551 190.996 46.3867C189.832 45.2225 175.278 55.1186 176.152 64.1415Z" fill="white"/>
<path d="M170.911 97.6134C162.063 109.023 162.568 119.831 163.926 123.809C167.516 123.809 176.325 122.47 182.845 117.115C189.365 111.759 193.517 93.1504 194.779 84.5156C190.51 84.1275 179.76 86.2038 170.911 97.6134Z" fill="white"/>
<path d="M196.238 112.167C193.211 117.755 181.976 124.585 176.737 127.302C203.049 134.054 215.837 119.443 218.941 111.293C212.635 109.256 199.265 106.578 196.238 112.167Z" fill="white"/>
<path d="M200.604 86.8472C195.714 94.2984 195.656 103.341 196.238 106.931C211.839 103.903 216.516 85.877 216.904 77.2422C213.508 77.3392 205.494 79.396 200.604 86.8472Z" fill="white"/>
<path d="M509.517 545.576C509.517 550.868 509.186 556.381 508.524 562.115H380.508C381.39 573.583 385.028 582.404 391.424 588.579C398.04 594.533 406.089 597.51 415.572 597.51C429.685 597.51 439.499 591.556 445.012 579.647H505.216C502.129 591.776 496.505 602.692 488.346 612.396C480.407 622.099 470.373 629.707 458.244 635.22C446.115 640.733 432.552 643.49 417.556 643.49C399.473 643.49 383.374 639.631 369.261 631.912C355.147 624.194 344.12 613.167 336.181 598.833C328.242 584.499 324.273 567.739 324.273 548.553C324.273 529.367 328.132 512.607 335.851 498.272C343.79 483.938 354.816 472.912 368.93 465.193C383.044 457.475 399.252 453.615 417.556 453.615C435.419 453.615 451.297 457.364 465.19 464.862C479.084 472.36 489.89 483.056 497.608 496.949C505.547 510.842 509.517 527.051 509.517 545.576ZM451.628 530.69C451.628 520.987 448.32 513.268 441.704 507.535C435.088 501.801 426.818 498.934 416.895 498.934C407.412 498.934 399.363 501.691 392.747 507.204C386.352 512.717 382.382 520.546 380.838 530.69H451.628ZM651.827 454.277C673.439 454.277 690.64 461.334 703.431 475.448C716.442 489.341 722.947 508.527 722.947 533.006V640.844H666.713V540.614C666.713 528.264 663.515 518.671 657.12 511.835C650.724 504.998 642.124 501.58 631.318 501.58C620.512 501.58 611.911 504.998 605.516 511.835C599.121 518.671 595.923 528.264 595.923 540.614V640.844H539.358V456.262H595.923V480.74C601.657 472.581 609.375 466.185 619.079 461.554C628.782 456.703 639.698 454.277 651.827 454.277ZM832.383 453.615C845.394 453.615 856.751 456.262 866.454 461.554C876.378 466.847 883.986 473.794 889.279 482.394V456.262H945.844V640.513C945.844 657.494 942.426 672.82 935.59 686.493C928.974 700.386 918.719 711.413 904.826 719.572C891.153 727.732 874.062 731.812 853.553 731.812C826.208 731.812 804.045 725.306 787.064 712.295C770.083 699.504 760.38 682.083 757.954 660.03H813.858C815.622 667.087 819.812 672.6 826.428 676.569C833.044 680.759 841.204 682.854 850.907 682.854C862.595 682.854 871.857 679.436 878.694 672.6C885.75 665.984 889.279 655.288 889.279 640.513V614.38C883.766 622.981 876.157 630.038 866.454 635.551C856.751 640.844 845.394 643.49 832.383 643.49C817.166 643.49 803.383 639.631 791.034 631.912C778.684 623.973 768.871 612.837 761.593 598.502C754.536 583.947 751.008 567.187 751.008 548.222C751.008 529.257 754.536 512.607 761.593 498.272C768.871 483.938 778.684 472.912 791.034 465.193C803.383 457.475 817.166 453.615 832.383 453.615ZM889.279 548.553C889.279 534.439 885.309 523.302 877.37 515.143C869.652 506.983 860.169 502.903 848.922 502.903C837.675 502.903 828.082 506.983 820.143 515.143C812.425 523.082 808.566 534.108 808.566 548.222C808.566 562.336 812.425 573.583 820.143 581.963C828.082 590.122 837.675 594.202 848.922 594.202C860.169 594.202 869.652 590.122 877.37 581.963C885.309 573.803 889.279 562.667 889.279 548.553ZM1251.73 456.262L1201.78 640.844H1139.26L1110.15 521.097L1080.05 640.844H1017.86L967.581 456.262H1024.15L1050.28 588.248L1081.37 456.262H1141.25L1172.67 587.586L1198.47 456.262H1251.73ZM1301.75 437.076C1291.83 437.076 1283.67 434.209 1277.27 428.475C1271.1 422.521 1268.01 415.244 1268.01 406.643C1268.01 397.822 1271.1 390.544 1277.27 384.811C1283.67 378.856 1291.83 375.879 1301.75 375.879C1311.45 375.879 1319.39 378.856 1325.57 384.811C1331.96 390.544 1335.16 397.822 1335.16 406.643C1335.16 415.244 1331.96 422.521 1325.57 428.475C1319.39 434.209 1311.45 437.076 1301.75 437.076ZM1329.87 456.262V640.844H1273.3V456.262H1329.87Z" fill="white"/>
<path fill-rule="evenodd" clip-rule="evenodd" d="M39.6094 441.775C39.9925 441.851 40.3657 441.905 40.7259 441.933C45.2413 442.295 47.7248 442.084 48.4021 441.933C46.2794 441.226 42.7757 439.74 39.6094 437.698V422.476C41.6178 423.148 43.6029 424.047 45.2413 425.226C49.7567 428.477 53.2938 435.913 54.4979 439.224C54.9494 438.321 55.8074 436.109 55.6268 434.483C55.4461 432.857 54.7989 431.397 54.4979 430.871C55.401 431.849 57.8845 433.941 60.5937 434.483C63.303 435.025 66.0875 434.709 67.1411 434.483C66.7648 434.031 64.7479 432.677 59.6906 430.871C54.6334 429.064 52.3155 426.807 51.7887 425.904C54.4979 425.904 60.8195 425.272 64.4318 422.743C68.9472 419.582 76.3977 421.162 78.6554 423.194C80.4615 424.82 84.6759 428.086 86.5573 429.516C86.7831 428.914 86.3767 426.716 82.945 422.743C79.5133 418.769 75.4946 418.077 73.9142 418.227C73.9142 416.271 74.3908 412.155 76.095 408.554H84.0657C83.1621 412.332 81.7391 415.522 81.1388 416.647C82.4182 416.12 85.293 414.073 86.5573 410.1C86.706 409.632 86.8208 409.113 86.9063 408.554H106.319L171.378 569.054L235.776 408.554H302.156V640.387H245.683V501.353L193.835 640.387H148.261L96.0816 501.023V640.387H39.6094V441.775Z" fill="white"/>
<path d="M77.7503 404.909C76.1247 407.618 75.2668 410.478 75.041 411.23L78.8791 415.52C79.8575 415.37 82.2657 413.804 84.0718 408.747C85.878 403.69 84.3729 400.77 83.3945 399.942C81.5884 400.168 79.3758 402.2 77.7503 404.909Z" fill="white"/>
<path d="M30.5711 425.229C31.2935 427.938 31.9257 429.518 34.8607 433.808C38.473 434.711 39.8277 422.52 36.4411 421.616C33.7318 420.894 30.7968 420.713 29.668 420.713C29.668 421.09 29.8486 422.52 30.5711 425.229Z" fill="white"/>
<path d="M28.7671 402.649C29.6702 414.751 42.2381 421.388 48.4092 423.195C41.0039 416.151 39.9051 404.305 40.2814 399.263C40.5072 401.219 41.5909 406.307 44.1195 411.003C46.6482 415.699 51.4947 420.034 53.6019 421.614C54.0534 417.324 53.2407 405.901 46.3772 394.522C39.5138 383.143 28.1651 381.201 23.3486 381.653C24.7785 383.609 27.864 390.548 28.7671 402.649Z" fill="white"/>
<path d="M61.9566 403.101C56.7188 410.506 57.667 417.174 58.7958 419.582C70.7166 421.93 76.5565 402.198 77.9863 392.038C74.8255 392.64 67.1945 395.696 61.9566 403.101Z" fill="white"/>
<path d="M49.7654 384.811C49.5848 390.59 53.7541 397.303 55.8613 399.937C57.4417 398.808 60.8734 394.699 61.9571 387.294C63.0408 379.889 58.3448 373.823 55.8613 371.716C53.9046 373.673 49.9461 379.031 49.7654 384.811Z" fill="white"/>
<path d="M3.47989 389.553C6.9116 396.416 16.3488 399.186 20.6385 399.713C21.0147 398.509 20.819 394.339 17.0261 387.295C13.2331 380.251 4.15718 377.738 0.0933288 377.361C-0.207699 378.565 0.0481747 382.69 3.47989 389.553Z" fill="white"/>
</svg>
